<svg xmlns="http://www.w3.org/2000/svg" version="1.1" xmlns:xlink="http://www.w3.org/1999/xlink" x="0" y="0" viewBox="0 0 512 512" style="enable-background:new 0 0 512 512" xml:space="preserve" class=""><g><path fill="#d78878" d="M66.446 250.796c0 20.931 16.968 37.9 37.899 37.9h27.697c5.689 0 10.302 4.612 10.302 10.302v42.998a97.644 97.644 0 0 1 13.935-1.002h91.091v-68.016h-36.444c-7.953 0-14.423-6.47-14.423-14.423v-21.473a1.75 1.75 0 0 1 1.749-1.749c12.289 0 22.286-9.997 22.286-22.285v-37.185c0-12.288-9.997-22.285-22.286-22.285h-13.15c-9.249 0-17.64 5.859-20.878 14.579-.391 1.054-1.44 1.764-2.608 1.764H151.21a2.809 2.809 0 0 1-2.771-2.326l-12.461-70.736a7.889 7.889 0 0 0-7.781-6.529H69.452l-3.006 1.03v69.615c0 3.613-1.025 7.152-2.955 10.207l-15.512 24.546c-4.655 7.367-3.12 17.208 3.828 22.469 4.333 3.281 9.7 5.445 14.639 5.89z" opacity="1" data-original="#d78878" class=""/><path fill="#c96e59" d="M214.937 272.977h32.434v68.016h-32.434z" opacity="1" data-original="#c96e59"/><path fill="#8ac9fe" d="m261.575 362.979-1.031-3.639c-6.805-.658-12.144-6.406-12.144-13.381v-5.997h-92.12c-54.285 0-98.292 44.007-98.292 98.292v61.008c0 7.034 5.702 12.736 12.736 12.736h189.821l1.031-3.78V362.979z" opacity="1" data-original="#8ac9fe"/><path fill="#5a5a5a" d="M248.4 93.149c0-22.777 9.68-43.325 25.126-57.786C263.313 14.553 241.937 0 216.867 0H66.481C43.532 0 29.065 24.699 40.29 44.715l26.157 46.644h61.752a6.87 6.87 0 0 1 6.766 5.679l12.459 70.735a3.845 3.845 0 0 0 3.786 3.178h10.407c1.579 0 3.024-.955 3.573-2.436 3.006-8.095 10.806-13.907 19.913-13.907h13.15c11.69 0 21.255 9.565 21.255 21.255v37.184c0 11.69-9.565 21.255-21.255 21.255a2.78 2.78 0 0 0-2.78 2.78v21.472c0 8.534 6.918 15.453 15.453 15.453H248.4z" opacity="1" data-original="#5a5a5a" class=""/><path fill="#444444" d="M273.527 35.363a63.475 63.475 0 0 0-26.199-27.529c-19.593 14.626-32.28 37.992-32.28 64.323v90.75c2.784 3.595 4.462 8.084 4.462 12.956v37.184c0 4.872-1.678 9.361-4.462 12.956v48.004H248.4V93.149c0-22.777 9.68-43.326 25.127-57.786z" opacity="1" data-original="#444444"/><path fill="#60b7ff" d="M57.988 479.549v19.714c0 7.034 5.702 12.736 12.736 12.736h189.821v-32.451H57.988z" opacity="1" data-original="#60b7ff"/><path fill="#ffcebf" d="M465.842 185.655c-5.657-3.567-9.226-9.655-9.226-16.343V84.876c-10.011 21.708-25.728 40.274-45.33 53.239-16.435 10.869-35.168 18.546-55.678 22.817a1.86 1.86 0 0 1-.365.037 1.69 1.69 0 0 1-1.218-.502c-4.258-4.443-9.964-6.889-16.066-6.889h-7.266c-15.532 0-28.169 12.637-28.169 28.17v31.3c0 5.93 2.325 11.519 6.545 15.74 4.221 4.22 9.811 6.544 15.74 6.544.986 0 1.749.802 1.749 1.788v78.739a43.37 43.37 0 0 1-6.924 23.545l-1.023 1.589h25.553c12.288 0 24.141 1.892 35.288 5.396v-47.391c0-5.689 4.612-10.302 10.302-10.302h28.962c20.931 0 37.9-16.968 37.9-37.9v-26.71c10.637-.96 18.975-9.89 18.975-20.776 0-7.438-3.891-13.962-9.749-17.655z" opacity="1" data-original="#ffcebf"/><path fill="#ffb09e" d="M352.502 304.148v37.149c9.32.655 18.348 2.387 26.951 5.091v-47.391c0-5.689 4.612-10.302 10.302-10.302h-21.8c-8.535.001-15.453 6.919-15.453 15.453z" opacity="1" data-original="#ffb09e"/><path fill="#fe93d3" d="M344.165 339.963h-24.908c-7.814 11.711-21.141 19.443-36.245 19.443h-21.165c-.44 0-.873-.025-1.302-.066V512h189.821c7.034 0 12.736-5.702 12.736-12.736V458.9c0-65.687-53.25-118.937-118.937-118.937z" opacity="1" data-original="#fe93d3"/><path fill="#fe73c5" d="M405.76 357.135c14.02 19.516 22.28 43.449 22.28 69.313v37.648c0 8.534-6.918 15.453-15.453 15.453H260.545V512h189.821c7.034 0 12.736-5.702 12.736-12.736V458.9c0-43.14-22.968-80.914-57.342-101.765z" opacity="1" data-original="#fe73c5"/><path fill="#feaee1" d="M384.779 512v-82.721c0-22.008-17.841-39.849-39.849-39.849s-39.849 17.841-39.849 39.849V512z" opacity="1" data-original="#feaee1"/><path fill="#fe93d3" d="M305.082 479.549h79.697V512h-79.697z" opacity="1" data-original="#fe93d3"/><path fill="#b3dafe" d="M216.196 512v-82.721c0-22.008-17.841-39.849-39.849-39.849s-39.849 17.841-39.849 39.849V512z" opacity="1" data-original="#b3dafe"/><path fill="#8ac9fe" d="M136.499 479.549h79.697V512h-79.697z" opacity="1" data-original="#8ac9fe"/><path fill="#ffd15b" d="M421.462 12.93h-93.873c-44.303 0-80.218 35.915-80.218 80.218v252.811c0 7.995 6.482 14.477 14.477 14.477h21.164c24.619 0 44.577-19.958 44.577-44.577v-78.74c0-1.525-1.212-2.821-2.737-2.818-11.71.024-21.298-9.55-21.298-21.255v-31.3c0-14.927 12.213-27.139 27.139-27.139h7.265c6.007 0 11.449 2.529 15.323 6.571.648.676 1.621.952 2.537.761 23.103-4.81 41.565-13.395 56.036-22.966 24.501-16.204 42.483-40.553 51.501-68.509 9.171-28.424-12.026-57.534-41.893-57.534z" opacity="1" data-original="#ffd15b" class=""/><path fill="#ffc344" d="M324.852 234.301c-9.838.02-18.155-6.745-20.569-15.846v66.11c0 24.619-19.958 44.577-44.577 44.577H247.37v16.817c0 7.995 6.482 14.477 14.477 14.477h21.164c24.619 0 44.577-19.958 44.577-44.577v-78.74c.001-1.524-1.211-2.821-2.736-2.818zM441.477 17.718c1.267 6.864.92 14.18-1.426 21.454-9.018 27.956-27.001 52.305-51.501 68.509-10.364 6.854-22.774 13.203-37.47 18.022a99.624 99.624 0 0 1-23.135 4.619c-13.028 1.038-23.662 12.885-23.662 25.955v19.268c2.826-11.962 13.618-20.936 26.411-20.936h7.265c6.007 0 11.449 2.529 15.323 6.571a2.708 2.708 0 0 0 2.501.768c23.119-4.809 41.593-13.398 56.073-22.974 24.501-16.204 42.483-40.553 51.501-68.509 6.929-21.481-3.49-43.343-21.88-52.747z" opacity="1" data-original="#ffc344" class=""/><path fill="#a44f3e" d="M100.601 170.963a7.499 7.499 0 0 1-7.5-7.5v-13.915c0-4.143 3.357-7.5 7.5-7.5s7.5 3.357 7.5 7.5v13.915a7.5 7.5 0 0 1-7.5 7.5zM106.869 255.517c-4.143 0-7.5-3.357-7.5-7.5s3.357-7.5 7.5-7.5c9.91 0 17.973-8.062 17.973-17.973 0-4.143 3.357-7.5 7.5-7.5s7.5 3.357 7.5 7.5c0 18.182-14.791 32.973-32.973 32.973z" opacity="1" data-original="#a44f3e"/><path fill="#f89580" d="M422.462 179.415a7.499 7.499 0 0 1-7.5-7.5V158c0-4.143 3.357-7.5 7.5-7.5s7.5 3.357 7.5 7.5v13.915a7.5 7.5 0 0 1-7.5 7.5zM419.946 255.517c-18.182 0-32.973-14.791-32.973-32.973 0-4.143 3.357-7.5 7.5-7.5s7.5 3.357 7.5 7.5c0 9.91 8.062 17.973 17.973 17.973 4.143 0 7.5 3.357 7.5 7.5s-3.357 7.5-7.5 7.5z" opacity="1" data-original="#f89580"/></g></svg>