<?xml version="1.0" encoding="UTF-8" standalone="no"?>
<!-- Uploaded to: SVG Repo, www.svgrepo.com, Generator: SVG Repo Mixer Tools -->

<svg
   version="1.1"
   id="Layer_1"
   viewBox="0 0 307487.85 335301.67"
   xml:space="preserve"
   width="307487.84"
   height="335301.66"
   xmlns="http://www.w3.org/2000/svg"
   xmlns:svg="http://www.w3.org/2000/svg"><defs
   id="defs25" />
<g
   id="g2"
   transform="translate(84325.513,81161.654)">
	<path
   style="fill:#094168"
   d="m 268.699,361.913 c 0,19.503 -15.817,124.668 -35.336,124.668 -19.495,0 -35.304,-105.173 -35.304,-124.668 0,-19.495 15.817,-35.32 35.304,-35.32 19.519,0 35.336,15.825 35.336,35.32 z"
   id="path1" />
	<path
   style="fill:#094168"
   d="m 387.057,361.913 c 0,19.503 -15.817,124.668 -35.336,124.668 -19.495,0 -35.304,-105.173 -35.304,-124.668 0,-19.495 15.817,-35.32 35.304,-35.32 19.519,0 35.336,15.825 35.336,35.32 z"
   id="path2" />
</g>
<path
   style="fill:#0f4f84"
   d="m 84717.706,81476.896 c 0,126.33 -44.599,84.259 -99.643,84.259 -55.028,0 -99.643,42.071 -99.643,-84.259 0,-72.231 44.631,-130.781 99.643,-130.781 55.028,0 99.643,58.558 99.643,130.781 z"
   id="path3" />
<path
   style="fill:#9b5013"
   d="m 84598.631,81648.873 c 0,14.935 -17.802,16.904 -39.739,16.904 -21.937,0 -39.739,-1.961 -39.739,-16.904 0,-14.943 17.802,-35.509 39.739,-35.509 21.937,0 39.739,20.567 39.739,35.509 z"
   id="path4" />
<path
   style="fill:#7c4412"
   d="m 84598.631,81648.873 c 0,14.935 -17.802,16.904 -39.739,16.904 -21.937,0 -39.739,-1.961 -39.739,-16.904"
   id="path5" />
<path
   style="fill:#9b5013"
   d="m 84716.981,81648.873 c 0,14.935 -17.802,16.904 -39.739,16.904 -21.937,0 -39.739,-1.961 -39.739,-16.904 0,-14.943 17.802,-35.509 39.739,-35.509 21.937,0 39.739,20.567 39.739,35.509 z"
   id="path6" />
<path
   style="fill:#7c4412"
   d="m 84716.981,81648.873 c 0,14.935 -17.802,16.904 -39.739,16.904 -21.937,0 -39.739,-1.961 -39.739,-16.904"
   id="path7" />
<g
   id="g9"
   transform="translate(84325.513,81161.654)">
	<path
   style="fill:#0f4f84"
   d="m 281.562,203.768 c 10.027,11.28 3.663,33.304 -14.218,49.223 -17.881,15.896 -114.018,85.024 -124.062,73.767 -10.012,-11.296 69.892,-98.714 87.773,-114.609 17.865,-15.895 40.479,-19.653 50.507,-8.381 z"
   id="path8" />
	<path
   style="fill:#0f4f84"
   d="m 303.53,203.768 c -10.027,11.28 -3.663,33.304 14.218,49.223 17.881,15.896 114.018,85.024 124.062,73.767 10.012,-11.296 -69.892,-98.714 -87.773,-114.609 -17.857,-15.895 -40.471,-19.653 -50.507,-8.381 z"
   id="path9" />
</g>
<rect
   x="84597.422"
   y="81361.203"
   style="fill:#e2ded3"
   width="41.354"
   height="141.131"
   id="rect9" />
<path
   style="fill:#c6bfaf"
   d="m 84597.386,81395.323 c 6.75,0.622 13.627,1.024 20.693,1.024 7.05,0 13.926,-0.402 20.661,-1.024 v -34.123 h -41.354 z"
   id="path10" />
<polygon
   style="fill:#9b5013"
   points="292.55,334.36 276.182,322.465 286.43,218.577 298.67,218.577 308.918,322.465 "
   id="polygon10"
   transform="translate(84325.513,81161.654)" />
<polyline
   style="fill:#7c4412"
   points="286.43,218.577 298.67,218.577 308.918,322.465 292.55,334.36 "
   id="polyline10"
   transform="translate(84325.513,81161.654)" />
<path
   style="fill:#f9c1ac"
   d="m 84747.016,81285.912 c 0,63.008 -57.738,94.681 -128.937,94.681 -71.215,0 -128.969,-31.673 -128.969,-94.681 0,-63.023 57.753,-124.258 128.969,-124.258 71.199,0 128.937,61.235 128.937,124.258 z"
   id="path11" />
<path
   style="fill:#f2b09c"
   d="m 84747.016,81285.912 c 0,63.008 -57.738,94.681 -128.937,94.681 -71.215,0 -128.969,-31.673 -128.969,-94.681"
   id="path12" />
<circle
   style="fill:#113e49"
   cx="84556.742"
   cy="81265.594"
   r="11.532"
   id="circle12" />
<path
   d="m 84568.273,81265.59 c 0,6.388 -5.167,11.54 -11.54,11.54 -6.372,0 -11.524,-5.152 -11.524,-11.54"
   id="path13" />
<path
   style="fill:#ffd3c5"
   d="m 84579.49,81289.646 c -0.614,0 -1.245,-0.221 -1.725,-0.717 -5.632,-5.624 -13.107,-8.72 -21.047,-8.72 h -0.02 c -7.94,0 -15.399,3.104 -21,8.712 -0.953,0.953 -2.489,0.977 -3.434,0 -0.953,-0.922 -0.985,-2.458 -0.03,-3.419 6.538,-6.546 15.218,-10.161 24.458,-10.161 h 0.02 c 9.263,0 17.952,3.592 24.505,10.145 0.937,0.937 0.937,2.505 0,3.434 -0.465,0.498 -1.079,0.718 -1.725,0.718 z"
   id="path14" />
<circle
   style="fill:#113e49"
   cx="84679.422"
   cy="81265.594"
   r="11.532"
   id="circle14" />
<path
   d="m 84667.861,81265.59 c 0,6.388 5.151,11.54 11.54,11.54 6.372,0 11.524,-5.152 11.524,-11.54"
   id="path15" />
<path
   style="fill:#ffd3c5"
   d="m 84656.644,81289.646 c 0.599,0 1.229,-0.221 1.709,-0.717 5.632,-5.624 13.107,-8.72 21.047,-8.72 h 0.02 c 7.94,0 15.415,3.104 21.016,8.712 0.937,0.953 2.473,0.977 3.434,0 0.953,-0.922 0.969,-2.458 0.02,-3.419 -6.506,-6.546 -15.218,-10.161 -24.458,-10.161 h -0.02 c -9.247,0 -17.936,3.592 -24.505,10.145 -0.922,0.937 -0.922,2.505 0,3.434 0.481,0.498 1.095,0.718 1.741,0.718 z"
   id="path16" />
<path
   style="fill:#8d97a0"
   d="m 84638.937,81517.108 c 0,5.254 -4.261,9.515 -9.523,9.515 h -22.307 c -5.262,0 -9.523,-4.261 -9.523,-9.515 v 0 c 0,-5.262 4.261,-9.523 9.523,-9.523 h 22.307 c 5.261,0 9.523,4.261 9.523,9.523 z"
   id="path17" />
<path
   style="fill:#a7b1b7"
   d="m 84629.414,81507.585 h -22.307 c -4.348,0 -7.861,2.962 -9.003,6.94 1.142,3.97 4.655,6.932 9.003,6.932 h 22.307 c 4.348,0 7.861,-2.962 9.003,-6.932 -1.142,-3.978 -4.655,-6.94 -9.003,-6.94 z"
   id="path18" />
<path
   style="fill:#e2ded3"
   d="m 84681.606,81428.162 c 0,1.457 -1.174,2.623 -2.623,2.623 h -25.6 c -1.449,0 -2.615,-1.166 -2.615,-2.623 v 0 c 0,-1.457 1.166,-2.623 2.615,-2.623 h 25.6 c 1.449,0 2.623,1.166 2.623,2.623 z"
   id="path19" />
<circle
   style="fill:#b20f0f"
   cx="84641.57"
   cy="81303.602"
   r="8.8620005"
   id="circle19" />
<polygon
   style="fill:#e2ded3"
   points="343.222,261.01 346.594,257.646 353.888,264.948 330.997,264.948 327.87,263.885 336.984,254.771 "
   id="polygon19"
   transform="translate(84325.513,81161.654)" />
<path
   style="fill:#a7b1b7"
   d="m 84744.141,81261.589 c -12.406,-53.564 -64.11,-99.935 -126.062,-99.935 -64.898,0 -118.469,50.885 -127.488,107.607 4.104,0.433 11.965,-1.103 15.762,-17.684 5.262,-22.977 24.292,-30.192 24.292,-30.192 -37.415,22.323 -11.815,43.323 -11.815,43.323 -1.969,-9.846 -13.123,-29.538 74.831,-34.792 87.946,-5.254 97.154,-24.615 97.154,-24.615 0,0 13.446,-1.961 17.384,26.915 2.284,16.769 26.6,26.096 35.942,29.373 z"
   id="path20" />
<path
   style="fill:#9b5013"
   d="m 84519.074,81588.575 c 0,6.995 -5.679,12.65 -12.666,12.65 h -106.796 c -6.995,0 -12.65,-5.664 -12.65,-12.65 v -74.358 c 0,-7.003 5.664,-12.658 12.65,-12.658 h 106.795 c 6.995,0 12.666,5.664 12.666,12.658 v 74.358 z"
   id="path21" />
<path
   style="fill:#bc601b"
   d="m 84506.408,81501.551 h -106.796 c -6.995,0 -12.65,5.664 -12.65,12.658 v 28.845 c 0,6.987 5.664,12.642 12.65,12.642 h 106.795 c 6.995,0 12.666,-5.664 12.666,-12.642 v -28.845 c 10e-4,-6.994 -5.671,-12.658 -12.665,-12.658 z"
   id="path22" />
<path
   style="fill:#a7b1b7"
   d="m 84462.265,81570.025 c 0,5.112 -4.128,9.255 -9.255,9.255 v 0 c -5.112,0 -9.255,-4.135 -9.255,-9.255 v -21.457 c 0,-5.12 4.135,-9.263 9.255,-9.263 v 0 c 5.12,0 9.255,4.135 9.255,9.263 z"
   id="path23" />
<path
   style="fill:#c8d5db"
   d="m 84453.018,81539.305 c -5.112,0 -9.255,4.135 -9.255,9.263 v 4.435 c 0,5.112 4.135,9.255 9.255,9.255 5.12,0 9.255,-4.135 9.255,-9.255 v -4.435 c -0,-5.12 -4.135,-9.263 -9.255,-9.263 z"
   id="path24" />
<path
   style="fill:#754719"
   d="m 84483.824,81499.338 h -8.885 c 0,-6.12 -4.978,-11.106 -11.106,-11.106 h -21.638 c -6.12,0 -11.099,4.986 -11.099,11.106 h -8.893 c 0,-11.012 8.98,-19.984 19.992,-19.984 h 21.638 c 11.028,0 19.991,8.972 19.991,19.984 z"
   id="path25" />
<ellipse
   style="fill:#324a5e;stroke-width:0.585509"
   cx="84305.555"
   cy="81150.922"
   id="circle1-2"
   rx="147.18781"
   ry="150.26527" /><rect
   x="84231.383"
   y="81155.422"
   style="fill:#e6e9ee;stroke-width:0.585509"
   width="221.36116"
   height="114.05965"
   id="rect1" /><g
   id="g3"
   transform="matrix(0.57947952,0,0,0.59159563,84158.242,81000.595)">
	<path
   style="fill:#2c9984"
   d="m 138.614,274.107 v 168.4 h 357.6 v -168.4 z m 12,131.6 v -94.8 c 13.6,0 24.4,-10.8 24.4,-24.4 h 103.2 c -21.6,14.8 -36.4,41.6 -36.4,72 0,30.4 14.4,57.2 36.4,72 h -103.2 c 0,-14 -10.8,-24.8 -24.4,-24.8 z m 333.2,0 c -13.6,0 -24.4,10.8 -24.4,24.4 h -102.8 c 21.6,-14.8 36.4,-41.6 36.4,-72 0,-30.4 -14.4,-57.2 -36.4,-72 h 102.8 c 0,13.6 10.8,24.4 24.4,24.4 z"
   id="path1-9" />
	<circle
   style="fill:#2c9984"
   cx="439.814"
   cy="358.10699"
   r="26"
   id="circle2" />
	<circle
   style="fill:#2c9984"
   cx="194.614"
   cy="358.10699"
   r="26"
   id="circle3-3" />
</g><path
   style="fill:#e6e9ee;stroke-width:0.585509"
   d="m 84342.177,81207.48 c -3.94,0 -7.185,-3.313 -7.185,-7.336 0,-4.023 3.245,-7.336 7.185,-7.336 2.086,0 3.941,0.947 5.332,2.367 1.854,1.893 4.867,2.13 6.953,0.236 1.855,-1.893 2.086,-4.969 0.233,-7.099 -2.087,-2.129 -4.636,-3.786 -7.418,-4.732 v -3.55 c 0,-2.84 -2.086,-4.969 -4.867,-4.969 -2.782,0 -4.868,2.129 -4.868,4.969 v 3.55 c -6.954,2.129 -12.053,8.755 -12.053,16.564 0,9.466 7.649,17.275 16.921,17.275 3.94,0 7.185,3.313 7.185,7.336 0,4.022 -3.245,7.335 -7.185,7.335 -2.086,0 -3.941,-0.946 -5.332,-2.366 -1.854,-1.893 -4.867,-2.13 -6.953,-0.237 -1.855,1.893 -2.086,4.97 -0.233,7.099 2.086,2.13 4.636,3.787 7.418,4.733 v 3.55 c 0,2.839 2.086,4.969 4.867,4.969 2.782,0 4.868,-2.13 4.868,-4.969 v -3.55 c 6.954,-2.13 12.053,-8.755 12.053,-16.564 0,-9.466 -7.649,-17.275 -16.921,-17.275 z"
   id="path3-9" /><rect
   x="-116949.91"
   y="7769.0923"
   transform="matrix(-0.67199407,-0.74055652,0.72653584,-0.68712857,0,0)"
   style="fill:#ffffff;stroke-width:0.585571"
   width="112.98937"
   height="223.51643"
   id="rect3" /><g
   id="g5"
   transform="matrix(0.57947952,0,0,0.59159563,84158.242,81000.595)">
	<path
   style="fill:#4cdbc4"
   d="m 17.414,313.707 114.4,123.6 262.4,-242.8 -114.4,-123.6 z m 98.4,88.4 -64.4,-69.6 c 10,-9.2 10.4,-24.8 1.2,-34.4 l 75.6,-70 c -6,25.6 1.6,55.2 22.4,77.6 20.8,22.4 49.6,32 75.6,28 l -76,69.6 c -8.8,-9.6 -24.4,-10.4 -34.4,-1.2 z m 244.4,-226.4 c -10,9.2 -10.4,24.8 -1.2,34.4 l -75.6,70 c 6,-25.6 -1.6,-55.2 -22.4,-77.6 -20.8,-22.4 -49.6,-32 -75.6,-28 l 75.6,-70 c 9.2,10 24.8,10.4 34.4,1.2 z"
   id="path4-9" />
	<circle
   style="fill:#4cdbc4"
   cx="295.814"
   cy="170.907"
   r="26"
   id="circle4-6" />
	<circle
   style="fill:#4cdbc4"
   cx="115.814"
   cy="337.30701"
   r="26"
   id="circle5" />
</g><path
   style="fill:#ffffff;stroke-width:0.585509"
   d="m 84274.262,81147.374 c -3.013,2.84 -7.649,2.603 -10.199,-0.473 -2.781,-3.077 -2.549,-7.809 0.464,-10.412 1.391,-1.42 3.477,-2.13 5.331,-1.894 2.781,0.237 5.099,-1.893 5.099,-4.496 0.232,-2.839 -1.854,-5.206 -4.404,-5.206 -3.013,-0.236 -6.026,0.474 -8.576,1.657 l -2.318,-2.603 c -1.854,-1.893 -4.868,-2.13 -6.954,-0.237 -1.854,1.893 -2.086,4.969 -0.232,7.099 l 2.318,2.603 c -3.709,6.389 -3.013,14.908 2.086,20.588 6.258,7.099 17.153,7.336 23.875,0.946 3.013,-2.839 7.649,-2.603 10.199,0.474 2.781,3.076 2.549,7.809 -0.464,10.412 -1.391,1.419 -3.476,2.129 -5.331,1.893 -2.781,-0.237 -5.099,1.893 -5.099,4.496 -0.233,2.84 1.854,5.206 4.404,5.206 3.013,0.237 6.026,-0.473 8.576,-1.657 l 2.318,2.603 c 1.854,1.894 4.868,2.13 6.954,0.237 1.854,-1.893 2.086,-4.969 0.232,-7.099 l -2.318,-2.603 c 3.709,-6.389 3.013,-14.908 -2.086,-20.588 -6.258,-7.099 -17.153,-7.572 -23.875,-0.946 z"
   id="path5-1" /></svg>
