<svg xmlns="http://www.w3.org/2000/svg" version="1.1" xmlns:xlink="http://www.w3.org/1999/xlink" x="0" y="0" viewBox="0 0 512 512" style="enable-background:new 0 0 512 512" xml:space="preserve" class=""><g><g fill-rule="evenodd" clip-rule="evenodd"><g fill="#219862"><path d="M200.932 440.08h109.505c10.327 0 18.705 8.378 18.705 18.705v34.099c0 10.326-8.378 18.51-18.705 18.51H200.932c-10.132 0-18.51-8.184-18.51-18.51v-34.099c0-10.327 8.378-18.705 18.51-18.705zM382.92 440.08h109.506c10.327 0 18.705 8.378 18.705 18.705v34.099c0 10.326-8.378 18.51-18.705 18.51H382.92c-10.132 0-18.51-8.184-18.51-18.51v-34.099c0-10.327 8.378-18.705 18.51-18.705zM19.333 440.08h109.31c10.327 0 18.706 8.378 18.706 18.705v34.099c0 10.326-8.379 18.51-18.706 18.51H19.333c-10.327 0-18.705-8.184-18.705-18.51v-34.099c0-10.327 8.378-18.705 18.705-18.705z" fill="#219862" opacity="1" data-original="#219862" class=""/></g><g fill="#3bb880"><path d="M200.932 330.185h109.505c10.132 0 18.51 8.378 18.51 18.51v34.099c0 10.327-8.378 18.705-18.51 18.705H200.932c-10.327 0-18.705-8.378-18.705-18.705v-34.099c0-10.132 8.378-18.51 18.705-18.51zM382.92 330.185h109.506c10.132 0 18.51 8.378 18.51 18.51v34.099c0 10.327-8.378 18.705-18.51 18.705H382.92c-10.327 0-18.706-8.378-18.706-18.705v-34.099c0-10.132 8.379-18.51 18.706-18.51zM19.138 330.185h109.505c10.132 0 18.51 8.378 18.51 18.51v34.099c0 10.327-8.378 18.705-18.51 18.705H19.138c-10.327 0-18.51-8.378-18.51-18.705v-34.099c0-10.132 8.183-18.51 18.51-18.51z" fill="#3bb880" opacity="1" data-original="#3bb880" class=""/></g><g fill="#79e7a0"><path d="M200.932 220.485h109.505c10.132 0 18.51 8.378 18.51 18.51v34.1c0 10.326-8.378 18.705-18.51 18.705H200.932c-10.327 0-18.705-8.379-18.705-18.706v-34.098c0-10.133 8.378-18.511 18.705-18.511zM382.92 220.485h109.506c10.132 0 18.51 8.378 18.51 18.51v34.1c0 10.326-8.378 18.705-18.51 18.705H382.92c-10.327 0-18.706-8.379-18.706-18.706v-34.098c0-10.133 8.379-18.511 18.706-18.511z" fill="#79e7a0" opacity="1" data-original="#79e7a0" class=""/></g><path fill="#ff475f" d="M268.35 70.257c15.198 0 27.668 11.496 29.422 26.11 19.68 8.573 31.175 29.227 42.282 48.517 8.573 15.198 16.562 29.422 25.33 29.422 14.224 0 28.058-11.886 40.724-28.838 14.224-19.29 26.499-44.815 36.436-68.976 22.018-53.389 48.128-73.069 48.128-73.069 5.845-4.481 14.03-3.507 18.51 2.144 4.482 5.845 3.508 14.224-2.143 18.705-.195 0-21.044 15.588-40.139 62.157-10.716 25.915-23.966 53.388-39.749 74.627-17.146 23.382-37.8 39.554-61.767 39.554-24.161 0-35.657-20.459-48.322-42.672-7.99-14.224-16.562-29.227-28.838-35.657-5.26 4.676-12.275 7.6-19.874 7.6-5.261 0-10.133-1.365-14.42-3.898-13.834 9.743-22.407 28.253-31.954 49.297l-.39.78c-5.066 10.91-10.522 22.602-16.952 34.487 2.728 4.482 4.287 9.743 4.287 15.394 0 16.367-13.25 29.617-29.812 29.617-2.338 0-4.677-.195-6.82-.78-3.117 3.118-6.235 6.235-9.742 9.158-57.87 51.05-148.085 57.87-148.475 57.87-7.21.585-13.444-4.871-14.03-12.08-.584-7.21 4.872-13.64 12.082-14.225.39 0 81.836-6.04 133.081-51.245 2.338-2.143 4.677-4.286 6.82-6.43-1.754-3.702-2.533-7.599-2.533-11.886 0-16.562 13.25-29.811 29.617-29.811 1.169 0 2.143 0 3.117.194 5.846-10.716 10.717-21.238 15.393-31.37l.39-.585c11.496-25.33 21.823-47.348 40.918-60.403-.194-1.169-.39-2.533-.39-3.897 0-16.367 13.445-29.811 29.813-29.811z" opacity="1" data-original="#ff475f" class=""/><path fill="#0499de" d="M392.273 21.74v106.777c0 11.3-9.353 20.653-20.654 20.653-11.496 0-20.654-9.352-20.654-20.653V21.739c0-11.3 9.158-20.654 20.654-20.654 11.302 0 20.654 9.353 20.654 20.654zm-350.727 0v236.546c0 11.496-9.158 20.654-20.654 20.654-11.302 0-20.654-9.158-20.654-20.654V21.739c0-11.3 9.352-20.654 20.654-20.654 11.496 0 20.654 9.353 20.654 20.654zm116.909 0v153.735c0 11.301-9.158 20.654-20.654 20.654-11.301 0-20.654-9.353-20.654-20.654V21.739c0-11.3 9.353-20.654 20.654-20.654 11.496 0 20.654 9.353 20.654 20.654zm117.883 0v16.367c0 11.3-9.158 20.654-20.654 20.654-11.3 0-20.654-9.353-20.654-20.654V21.739c0-11.3 9.353-20.654 20.654-20.654 11.496 0 20.654 9.353 20.654 20.654z" opacity="1" data-original="#0499de" class=""/></g></g></svg>