<?xml version="1.0" ?>
<!-- Uploaded to: SVG Repo, www.svgrepo.com, Generator: SVG Repo Mixer Tools -->
<svg width="800px" height="800px" viewBox="0 0 512 512" xmlns="http://www.w3.org/2000/svg">
<defs>
<style>.e{fill:#f2c34e;}.f{fill:#cecece;}.g{fill:#bebebe;}.h{fill:#dfdfdf;}.i{fill:#41a08e;}.j{fill:#365650;}</style>
</defs>
<g id="a"/>
<g id="b"/>
<g id="c">
<g>
<rect class="h" height="368" width="32" x="240" y="40"/>
<path class="g" d="M487.37854,28.54907l-23.63123,4.19141c-8.2981,11.87622-20.97412,19.96973-35.2395,22.5L87.09119,115.79565c-14.26538,2.53027-28.95166-.71021-40.828-9.00806l-23.63116,4.19116c3.85803,21.75195,24.61896,36.25781,46.37085,32.39966L454.97876,74.91992c21.75195-3.85791,36.25781-24.61914,32.39978-46.37085Z"/>
<path class="e" d="M256,24c-44.1828,0-80,35.81714-80,80s35.8172,80,80,80,80-35.81738,80-80-35.81714-80-80-80Zm-53.33331,80c0-29.45532,23.87817-53.3335,53.33331-53.3335,10.17163,0,19.67822,2.84766,27.76611,7.78906l-73.31055,73.31055c-4.94141-8.08789-7.78888-17.59448-7.78888-27.76611Zm53.33331,53.33325c-10.17169,0-19.67841-2.84741-27.7663-7.78882l73.31097-73.31055c4.94116,8.08789,7.78857,17.59424,7.78857,27.76611,0,29.45508-23.87817,53.33325-53.33325,53.33325Z"/>
<path class="g" d="M304,440h-96c-17.6731,0-32,14.32666-32,32v16h160v-16c0-17.67334-14.3269-32-32-32Z"/>
<path class="f" d="M280,408h-48c-8.83655,0-16,7.16357-16,16v16h80v-16c0-8.83643-7.16345-16-16-16Z"/>
<path class="f" d="M24,408c0,17.67285,14.32684,32,31.99994,32h112.00012c17.6731,0,31.99994-14.32715,31.99994-32H24Z"/>
<path class="i" d="M145.58368,305.50195c-.9743-5.8457-5.10022-10.67432-10.72266-12.54834l-14.86102-4.95361,.8446-1.68945c4.70557-9.41113,7.1554-19.78857,7.1554-30.31055h0c0-8.83667-7.16345-16-16-16s-16,7.16333-16,16h0c0,10.52197,2.44983,20.89941,7.1554,30.31055l.8446,1.68945-14.86102,4.95361c-5.62244,1.87402-9.74835,6.70264-10.72266,12.54834l-6.41632,38.49805,16,8,8,56h32l8-56,16-8-6.41632-38.49805Z"/>
<path class="f" d="M312,360c0,17.67285,14.3269,32,32,32h112c17.6731,0,32-14.32715,32-32h-176Z"/>
<path class="i" d="M433.58374,257.50195c-.97437-5.8457-5.10034-10.67407-10.72266-12.54834l-14.86108-4.95361,.8446-1.68921c4.70557-9.41113,7.1554-19.78882,7.1554-30.31079h0c0-8.83667-7.16345-16-16-16s-16,7.16333-16,16h0c0,10.52197,2.44983,20.89966,7.1554,30.31079l.8446,1.68921-14.86108,4.95361c-5.62231,1.87427-9.74829,6.70264-10.72266,12.54834l-6.41626,38.49805,16,8,8,56h32l8-56,16-8-6.41626-38.49805Z"/>
<path class="j" d="M256,188c46.31787,0,84-37.68262,84-84s-37.68213-84-84-84-84,37.68262-84,84,37.68213,84,84,84Zm0-160c41.90674,0,76,34.09375,76,76s-34.09326,76-76,76-76-34.09375-76-76S214.09326,28,256,28Z"/>
<path class="j" d="M209.98291,135.73828c.15771,.01953,.31592,.02832,.47314,.02832,1.0542,0,2.07324-.41699,2.82812-1.17188l73.31055-73.31055c.8667-.86621,1.28809-2.08301,1.14355-3.30078-.14502-1.21777-.84033-2.30176-1.88672-2.94043-8.96875-5.47949-19.29102-8.37598-29.85156-8.37598-31.61377,0-57.3335,25.71973-57.3335,57.33301,0,10.56055,2.89648,20.88379,8.37549,29.85156,.63965,1.04688,1.72314,1.74219,2.94092,1.88672Zm46.01709-81.07129c7.35498,0,14.57373,1.63184,21.14746,4.75098l-65.72998,65.73047c-3.11963-6.57422-4.75098-13.79297-4.75098-21.14844,0-27.20215,22.13086-49.33301,49.3335-49.33301Z"/>
<path class="j" d="M224.26172,150.01758c.14502,1.21777,.84033,2.30176,1.88672,2.94043,8.96729,5.47949,19.29004,8.375,29.85156,8.375,31.61377,0,57.3335-25.71973,57.3335-57.33301,0-10.56152-2.89648-20.88379-8.37598-29.85156-.63916-1.0459-1.72314-1.74121-2.94043-1.88574-1.21729-.14746-2.43457,.27637-3.30127,1.14355l-73.31055,73.31055c-.8667,.86621-1.28809,2.08301-1.14355,3.30078Zm76.32129-67.16504c3.11914,6.57324,4.75049,13.79199,4.75049,21.14746,0,27.20215-22.13086,49.33301-49.3335,49.33301-7.35547,0-14.57422-1.63086-21.14746-4.75l65.73047-65.73047Z"/>
<path class="j" d="M304,436h-4v-12c0-11.02832-8.97217-20-20-20h-4V199.77832h-8v204.22168h-24V199.77832h-8v204.22168h-4c-11.02783,0-20,8.97168-20,20v12h-4c-19.85059,0-36,16.14941-36,36v16c0,2.20898,1.79102,4,4,4h160c2.20898,0,4-1.79102,4-4v-16c0-19.85059-16.14941-36-36-36Zm-84-12c0-6.61719,5.3833-12,12-12h48c6.6167,0,12,5.38281,12,12v12h-72v-12Zm112,60H180v-12c0-15.43945,12.56055-28,28-28h96c15.43945,0,28,12.56055,28,28v12Z"/>
<path class="j" d="M204,408c0-.40771-.07892-.79297-.19226-1.16357l.01746-.00537L121.71082,138.09253l39.8053-7.0603-1.39746-7.87695-91.81396,16.28516c-18.21484,3.22852-35.71338-7.91016-40.81836-25.26074l17.87646-3.1709c12.56152,8.2666,27.55811,11.36426,42.42725,8.72559l73.15283-12.97461-1.39746-7.87695-73.15283,12.97461c-13.3125,2.35938-26.75293-.60254-37.83838-8.34961-.87012-.60742-1.94434-.8457-2.98975-.65918l-23.63135,4.19141c-1.04443,.18555-1.97266,.77832-2.58008,1.64746-.60791,.87012-.84521,1.94531-.65967,2.98926,3.77832,21.30273,22.38086,36.32227,43.3042,36.32129,2.54053,0,5.11719-.22168,7.7041-.68066l31.47504-5.58276L20.1748,406.83105l.01746,.00537c-.11334,.37061-.19226,.75586-.19226,1.16357,0,19.85059,16.14941,36,36,36h112c19.85059,0,36-16.14941,36-36ZM113.77612,139.5l80.81927,264.5h-61.98322l7.05139-49.35938,14.12549-7.0625c1.57031-.78613,2.44531-2.50391,2.15674-4.23535l-6.4165-38.49805c-1.22119-7.32617-6.35693-13.33691-13.40332-15.68555l-10.53564-3.51172c4.2002-9.27539,6.40967-19.46777,6.40967-29.64746,0-11.02832-8.97217-20-20-20s-20,8.97168-20,20c0,10.17969,2.20947,20.37207,6.40967,29.64746l-10.53516,3.51172c-7.04688,2.34863-12.18262,8.35938-13.40381,15.68555l-6.4165,38.49805c-.28857,1.73145,.58643,3.44922,2.15674,4.23535l14.12549,7.0625,7.05139,49.35938H29.4046L110.02081,140.16602l3.75531-.66602Zm-21.81616,211.93457c-.18604-1.2998-.99707-2.4248-2.1709-3.0127l-13.35791-6.67871,5.93115-35.58398c.73242-4.39551,3.81396-8.00098,8.04199-9.41016l14.86084-4.9541c1.1001-.36719,1.98682-1.19336,2.43018-2.26465,.44385-1.07129,.40088-2.28223-.11768-3.31934l-.84473-1.68945c-4.40479-8.80957-6.73291-18.67188-6.73291-28.52148,0-6.61719,5.3833-12,12-12s12,5.38281,12,12c0,9.84961-2.32812,19.71191-6.73291,28.52148l-.84473,1.68945c-.51855,1.03711-.56152,2.24805-.11768,3.31934,.44336,1.07129,1.33008,1.89746,2.43018,2.26465l14.86084,4.9541h.00049c4.22754,1.40918,7.30908,5.01465,8.0415,9.41016l5.93115,35.58398-13.35791,6.67871c-1.17383,.58789-1.98486,1.71289-2.1709,3.0127l-7.50928,52.56543h-25.06152l-7.50928-52.56543Zm76.04004,84.56543H56c-14.08154,0-25.76807-10.44922-27.71533-24H195.71533c-1.94727,13.55078-13.63379,24-27.71533,24Z"/>
<path class="j" d="M491.80774,358.83643l.01746-.00537L408.81787,87.16992l46.85986-8.31152c11.57227-2.05273,21.65234-8.48926,28.38379-18.12305s9.30811-21.3125,7.25537-32.88477c-.38574-2.17578-2.46484-3.63184-4.63721-3.24023l-23.63086,4.19141c-1.04443,.18555-1.97266,.77832-2.58008,1.64746-7.74512,11.08496-19.34375,18.49023-32.65967,20.85254l-84.62109,15.00879,1.39746,7.87695,84.62109-15.00879c14.86719-2.63672,27.88574-10.70312,36.83838-22.7832l17.87646-3.1709c1.17334,18.04688-11.42676,34.52637-29.64111,37.75684l-102.58496,18.19531,1.39746,7.87695,37.07898-6.57666-81.99695,268.354,.01746,.00537c-.1134,.37061-.19226,.75586-.19226,1.16357,0,19.85059,16.14941,36,36,36h112c19.85059,0,36-16.14941,36-36,0-.40771-.07886-.79297-.19226-1.16357ZM400.88306,88.57715l81.7124,267.42285h-61.98328l7.05139-49.35938,14.12549-7.0625c1.57031-.78613,2.44531-2.50391,2.15674-4.23535l-6.4165-38.49805c-1.22119-7.32617-6.35693-13.33691-13.40332-15.68555l-10.53564-3.51172c4.2002-9.27539,6.40967-19.46777,6.40967-29.64746,0-11.02832-8.97217-20-20-20s-20,8.97168-20,20c0,10.17969,2.20947,20.37207,6.40967,29.64746l-10.53516,3.51172c-7.04688,2.34863-12.18262,8.35938-13.40381,15.68555l-6.4165,38.49805c-.28857,1.73145,.58643,3.44922,2.15674,4.23535l14.12549,7.0625,7.05139,49.35938h-61.98328L399.01587,88.90845l1.86719-.3313Zm-20.9231,214.85742c-.18604-1.2998-.99707-2.4248-2.1709-3.0127l-13.35791-6.67871,5.93115-35.58398c.73242-4.39551,3.81396-8.00098,8.04199-9.41016l14.86084-4.9541c1.1001-.36719,1.98682-1.19336,2.43018-2.26465,.44385-1.07129,.40088-2.28223-.11768-3.31934l-.84473-1.68945c-4.40479-8.80957-6.73291-18.67188-6.73291-28.52148,0-6.61719,5.3833-12,12-12s12,5.38281,12,12c0,9.84961-2.32812,19.71191-6.73291,28.52148l-.84473,1.68945c-.51855,1.03711-.56152,2.24805-.11768,3.31934,.44336,1.07129,1.33008,1.89746,2.43018,2.26465l14.86084,4.9541h.00049c4.22754,1.40918,7.30908,5.01465,8.0415,9.41016l5.93115,35.58398-13.35791,6.67871c-1.17383,.58789-1.98486,1.71289-2.1709,3.0127l-7.50928,52.56543h-25.06152l-7.50928-52.56543Zm76.04004,84.56543h-112c-14.08154,0-25.76807-10.44922-27.71533-24h167.43066c-1.94727,13.55078-13.63379,24-27.71533,24Z"/>
</g>
</g>
<g id="d"/>
</svg>