<?xml version="1.0" encoding="UTF-8" standalone="no"?>
<!-- Created with Inkscape (http://www.inkscape.org/) -->

<svg
   version="1.1"
   id="svg1"
   width="566.95001"
   height="121.37994"
   viewBox="0 0 566.95002 121.37994"
   xml:space="preserve"
   xmlns="http://www.w3.org/2000/svg"
   xmlns:svg="http://www.w3.org/2000/svg"><defs
     id="defs1" /><g
     id="g1"
     transform="translate(-6.8290456,-991.66216)"><g
       id="g9"
       transform="translate(6.8290458,991.67217)">
	<path
   class="st0"
   d="m 194.96,18.44 -22.82,51.13 h 9.16 l 5.9,-13.28 h 26.97 l 5.9,13.28 h 9.31 L 206.56,18.44 Z m -4.47,30.45 6.92,-15.57 2.98,-7.25 H 201 l 2.97,7.25 6.92,15.57 z M 238,18.44 h -2.52 v 51.13 h 2.52 5.72 32.66 v -7.4 H 243.72 V 47.52 h 31.51 V 40.2 H 243.72 V 25.84 h 32.66 v -7.4 H 243.72 238 Z m 86.3,2.48 c -3.97,-2.16 -8.67,-3.24 -14.12,-3.24 -5.34,0 -10.01,1.08 -14,3.24 -3.99,2.16 -7.1,5.21 -9.31,9.16 -2.21,3.94 -3.32,8.58 -3.32,13.93 0,5.35 1.11,9.99 3.32,13.93 2.21,3.94 5.32,6.99 9.31,9.16 3.72,2.02 8.05,3.05 12.94,3.19 l 7.47,10.05 h 10.38 l -8.86,-10.9 c 2.23,-0.54 4.3,-1.31 6.19,-2.34 3.97,-2.16 7.06,-5.21 9.27,-9.16 2.21,-3.94 3.32,-8.58 3.32,-13.93 0,-5.35 -1.1,-9.98 -3.32,-13.93 -2.22,-3.94 -5.3,-6.99 -9.27,-9.16 z m 1.91,33.5 c -1.32,2.72 -3.32,4.73 -5.99,6.03 -2.67,1.29 -6.02,1.94 -10.03,1.94 -4.02,0 -7.36,-0.65 -10.03,-1.94 -2.67,-1.3 -4.65,-3.31 -5.95,-6.03 -1.3,-2.72 -1.95,-6.19 -1.95,-10.42 0,-4.27 0.65,-7.76 1.95,-10.45 1.3,-2.7 3.28,-4.69 5.95,-5.99 2.67,-1.3 6.02,-1.95 10.03,-1.95 4.02,0 7.36,0.65 10.03,1.95 2.67,1.29 4.67,3.29 5.99,5.99 1.32,2.7 1.98,6.18 1.98,10.45 0,4.23 -0.67,7.7 -1.98,10.42 z m 58.52,-6.6 c 0,3.46 -0.53,6.26 -1.6,8.39 -1.07,2.14 -2.76,3.7 -5.07,4.69 -2.32,0.99 -5.36,1.49 -9.12,1.49 -3.71,0 -6.73,-0.49 -9.04,-1.49 -2.32,-0.99 -4.02,-2.55 -5.11,-4.69 -1.1,-2.13 -1.64,-4.93 -1.64,-8.39 V 18.44 h -8.16 v 29.91 c 0,4.63 0.94,8.58 2.82,11.87 1.88,3.28 4.6,5.79 8.16,7.52 3.56,1.73 7.88,2.59 12.97,2.59 5.14,0 9.49,-0.86 13.05,-2.59 3.56,-1.73 6.28,-4.23 8.16,-7.52 1.88,-3.28 2.83,-7.24 2.83,-11.87 V 18.44 h -8.24 v 29.38 z m 17.85,21.75 h 8.24 V 18.44 h -8.24 z m 63.64,-43.73 v -7.4 h -20.07 -8.16 -20.15 v 7.4 h 20.15 v 43.72 h 8.16 V 25.84 Z m 19.11,-7.4 -22.82,51.13 h 9.16 l 5.9,-13.28 h 26.97 l 5.9,13.28 h 9.31 L 496.94,18.44 Z m -4.47,30.45 6.92,-15.57 2.97,-7.25 h 0.61 l 2.97,7.25 6.92,15.57 z m 84.39,-0.08 c -1.12,-1.88 -2.81,-3.44 -5.07,-4.66 -2.27,-1.22 -5.1,-2.13 -8.51,-2.75 l -12.44,-2.14 c -1.98,-0.46 -3.61,-0.95 -4.88,-1.49 -1.27,-0.54 -2.21,-1.26 -2.82,-2.18 -0.61,-0.91 -0.92,-2.09 -0.92,-3.51 0,-1.57 0.43,-2.86 1.3,-3.85 0.86,-0.99 2.25,-1.74 4.16,-2.25 1.91,-0.51 4.41,-0.76 7.52,-0.76 3.56,0 6.38,0.34 8.47,1.03 2.09,0.69 3.59,1.73 4.5,3.13 0.92,1.4 1.38,3.14 1.38,5.23 v 0.99 h 8.16 v -0.46 c 0,-3.36 -0.78,-6.34 -2.33,-8.97 -1.55,-2.62 -3.93,-4.69 -7.13,-6.22 -3.2,-1.53 -7.3,-2.29 -12.29,-2.29 -4.02,0 -7.41,0.42 -10.19,1.26 -2.77,0.84 -5.02,1.97 -6.75,3.39 -1.73,1.43 -3,3.03 -3.81,4.81 -0.82,1.78 -1.22,3.58 -1.22,5.42 0,2.8 0.62,5.13 1.87,6.98 1.25,1.86 2.98,3.33 5.23,4.42 2.24,1.09 4.78,1.92 7.63,2.48 l 12.51,2.06 c 3.21,0.61 5.52,1.43 6.94,2.44 1.43,1.02 2.14,2.65 2.14,4.88 0,1.58 -0.42,2.89 -1.26,3.93 -0.84,1.04 -2.23,1.81 -4.16,2.29 -1.93,0.48 -4.53,0.72 -7.78,0.72 -3.77,0 -6.72,-0.34 -8.85,-1.03 -2.14,-0.68 -3.66,-1.7 -4.58,-3.05 -0.91,-1.35 -1.37,-3.04 -1.37,-5.07 V 52.4 h -8.24 v 0.46 c 0,3.56 0.86,6.65 2.6,9.27 1.73,2.62 4.31,4.64 7.74,6.07 3.43,1.42 7.67,2.13 12.71,2.13 5.03,0 9.13,-0.7 12.28,-2.1 3.15,-1.4 5.47,-3.25 6.94,-5.53 1.47,-2.29 2.22,-4.73 2.22,-7.33 -0.02,-2.49 -0.58,-4.67 -1.7,-6.56 z"
   id="path1-7"
   style="fill:#000000" />
	<path
   class="st0"
   d="m 187.67,101.85 h 2.63 v 18.3 h -2.37 v -5.71 h -0.19 c -0.2,1.04 -0.62,2.01 -1.28,2.92 -0.65,0.91 -1.53,1.67 -2.61,2.26 -1.09,0.59 -2.4,0.89 -3.93,0.89 -1.73,0 -3.17,-0.36 -4.32,-1.09 -1.15,-0.73 -2.01,-1.7 -2.59,-2.91 -0.58,-1.21 -0.87,-2.53 -0.87,-3.97 v -10.71 h 2.63 v 10.3 c 0,1.88 0.48,3.35 1.44,4.41 0.96,1.06 2.51,1.59 4.63,1.59 2.25,0 3.95,-0.65 5.09,-1.95 1.15,-1.29 1.72,-3.12 1.72,-5.47 v -8.86 z m 21.68,0.72 c -1.14,-0.73 -2.57,-1.09 -4.3,-1.09 -1.53,0 -2.84,0.29 -3.91,0.87 -1.07,0.58 -1.93,1.34 -2.58,2.28 -0.64,0.94 -1.07,1.93 -1.3,2.97 h -0.19 v -5.74 h -2.37 v 18.3 h 2.63 v -8.86 c 0,-2.37 0.57,-4.2 1.7,-5.49 1.14,-1.28 2.83,-1.93 5.08,-1.93 2.1,0 3.63,0.52 4.58,1.56 0.95,1.04 1.43,2.51 1.43,4.41 v 10.3 h 2.63 v -10.67 c 0,-1.46 -0.28,-2.79 -0.85,-4 -0.56,-1.21 -1.42,-2.18 -2.55,-2.91 z m 26.2,3.5 c 0.69,1.43 1.04,3.08 1.04,4.93 0,1.85 -0.35,3.5 -1.04,4.93 -0.69,1.43 -1.71,2.55 -3.06,3.37 -1.35,0.82 -3.02,1.22 -5.02,1.22 -2.05,0 -3.76,-0.5 -5.13,-1.52 -1.37,-1.01 -2.28,-2.43 -2.72,-4.26 h -0.19 v 5.41 h -2.37 V 95.33 h 2.63 v 11.64 h 0.15 c 0.42,-1.58 1.28,-2.89 2.59,-3.93 1.31,-1.04 3.06,-1.56 5.26,-1.56 1.93,0 3.54,0.41 4.85,1.22 1.32,0.82 2.32,1.94 3.01,3.37 z m -1.63,4.93 c 0,-1.78 -0.29,-3.18 -0.87,-4.21 -0.58,-1.03 -1.4,-1.76 -2.45,-2.21 -1.05,-0.44 -2.28,-0.67 -3.69,-0.67 -2.32,0 -4.11,0.61 -5.35,1.83 -1.25,1.22 -1.87,2.96 -1.87,5.2 v 0.34 c 0,1.43 0.29,2.66 0.87,3.69 0.58,1.02 1.4,1.8 2.46,2.34 1.06,0.53 2.32,0.79 3.78,0.79 1.48,0 2.75,-0.23 3.82,-0.68 1.06,-0.46 1.88,-1.2 2.45,-2.22 0.56,-1.02 0.85,-2.42 0.85,-4.2 z m 5.89,9.16 h 2.63 v -18.3 h -2.63 z m 0,-20.65 h 2.63 v -4.19 h -2.63 z m 22.42,5.53 c 0.54,1.09 0.82,2.31 0.82,3.67 v 11.45 h -2.37 v -4.93 h -0.19 c -0.54,1.68 -1.57,2.98 -3.07,3.91 -1.51,0.93 -3.34,1.39 -5.48,1.39 -1.8,0 -3.26,-0.41 -4.37,-1.24 -1.11,-0.83 -1.67,-1.97 -1.67,-3.43 0,-1.01 0.25,-1.83 0.76,-2.47 0.51,-0.63 1.2,-1.12 2.09,-1.46 0.89,-0.35 1.9,-0.59 3.04,-0.74 l 8.71,-0.96 v -1.41 c 0,-1.78 -0.42,-3.05 -1.26,-3.82 -0.84,-0.77 -2.27,-1.15 -4.3,-1.15 -1.95,0 -3.44,0.36 -4.47,1.09 -1.02,0.73 -1.54,1.91 -1.54,3.54 v 0.15 h -2.63 v -0.15 c 0,-1.31 0.35,-2.49 1.04,-3.54 0.69,-1.05 1.69,-1.89 3,-2.52 1.31,-0.63 2.9,-0.94 4.78,-0.94 1.85,0 3.36,0.32 4.54,0.96 1.17,0.65 2.02,1.51 2.57,2.6 z m -1.74,7.07 v -0.15 l -7.89,0.89 c -1.38,0.12 -2.41,0.38 -3.07,0.78 -0.67,0.4 -1,1.08 -1,2.04 0,0.91 0.32,1.61 0.96,2.1 0.64,0.48 1.65,0.72 3.04,0.72 1.51,0 2.85,-0.23 4.04,-0.68 1.19,-0.46 2.14,-1.15 2.85,-2.09 0.71,-0.94 1.07,-2.15 1.07,-3.61 z m 17.04,-1.7 -4.48,-0.63 c -1.51,-0.25 -2.55,-0.58 -3.13,-0.98 -0.58,-0.41 -0.87,-1.08 -0.87,-2.02 0,-1.09 0.43,-1.88 1.28,-2.37 0.85,-0.49 2.24,-0.74 4.17,-0.74 1.56,0 2.78,0.16 3.67,0.48 0.89,0.32 1.52,0.79 1.89,1.41 0.37,0.62 0.56,1.4 0.56,2.34 v 0.18 h 2.63 V 108 c 0,-1.46 -0.36,-2.67 -1.07,-3.63 -0.72,-0.96 -1.72,-1.69 -3.02,-2.17 -1.3,-0.48 -2.82,-0.72 -4.58,-0.72 -1.68,0 -3.12,0.22 -4.33,0.65 -1.21,0.43 -2.14,1.04 -2.8,1.82 -0.65,0.78 -0.98,1.71 -0.98,2.8 0,1.53 0.49,2.66 1.46,3.37 0.98,0.72 2.3,1.19 3.98,1.41 l 4.89,0.7 c 1.53,0.25 2.61,0.58 3.24,0.98 0.63,0.41 0.94,1.09 0.94,2.06 0,1.04 -0.41,1.81 -1.22,2.31 -0.82,0.51 -2.25,0.76 -4.3,0.76 -2.25,0 -3.86,-0.31 -4.84,-0.92 -0.98,-0.62 -1.46,-1.69 -1.46,-3.22 v -0.22 h -2.63 v 0.07 c 0,2.12 0.79,3.74 2.35,4.84 1.57,1.1 3.75,1.65 6.54,1.65 1.58,0 2.98,-0.2 4.21,-0.59 1.22,-0.4 2.19,-0.99 2.89,-1.78 0.7,-0.79 1.06,-1.75 1.06,-2.89 0,-1.48 -0.52,-2.6 -1.56,-3.34 -1.04,-0.75 -2.54,-1.26 -4.49,-1.53 z m 32.69,-15.08 10.93,24.83 h -6.38 l -2.35,-5.48 h -12.4 l -2.36,5.48 h -6.23 l 10.86,-24.83 z m 0.06,14.34 -2.32,-5.41 -1.52,-3.85 h -0.41 l -1.52,3.85 -2.33,5.41 z m 12.17,-14.34 v 24.83 h 5.56 V 95.33 Z"
   id="path2-9"
   style="fill:#000000" />
	<g
   id="g8">
		<path
   class="st1"
   d="m 127.6,61.24 c -3.12,10.76 -9.32,20.19 -17.59,27.3 v 0 c -0.04,0.04 -0.09,0.07 -0.13,0.11 -0.54,0.46 -1.09,0.91 -1.64,1.35 -0.07,0.05 -0.14,0.11 -0.2,0.16 -0.6,0.47 -1.21,0.93 -1.83,1.38 -0.03,0.02 -0.06,0.04 -0.09,0.06 -3.32,2.39 -6.91,4.43 -10.72,6.07 -0.02,0.01 -0.04,0.02 -0.06,0.02 -0.71,0.31 -1.43,0.6 -2.16,0.87 -0.13,0.05 -0.27,0.1 -0.41,0.15 -0.61,0.23 -1.23,0.45 -1.86,0.66 -0.2,0.07 -0.4,0.13 -0.6,0.19 -0.56,0.18 -1.13,0.35 -1.7,0.52 -0.24,0.07 -0.49,0.14 -0.73,0.2 -0.53,0.14 -1.07,0.28 -1.61,0.41 -0.27,0.07 -0.55,0.13 -0.83,0.19 -0.52,0.12 -1.04,0.22 -1.56,0.33 -0.3,0.06 -0.59,0.12 -0.89,0.17 -0.52,0.09 -1.03,0.17 -1.55,0.25 -0.31,0.05 -0.61,0.09 -0.92,0.13 -0.52,0.07 -1.05,0.13 -1.58,0.18 -0.3,0.03 -0.61,0.07 -0.91,0.1 -0.57,0.05 -1.14,0.08 -1.72,0.12 -0.27,0.02 -0.53,0.04 -0.79,0.05 -0.84,0.04 -1.69,0.06 -2.54,0.06 -25.91,0 -47.76,-17.33 -54.63,-41.03 L 0,66.56 c 9.17,31.66 38.36,54.81 72.97,54.81 34.61,0 63.8,-23.16 72.97,-54.81 z"
   id="path3-3" />
		<path
   class="st2"
   d="m 72.97,102.27 c 14.15,0 27.09,-5.18 37.04,-13.73 L 97.57,74.05 c -6.61,5.68 -15.2,9.12 -24.6,9.12 -20.87,0 -37.78,-16.92 -37.78,-37.78 v 0 h -19.1 v 0 c 0,31.42 25.47,56.88 56.88,56.88 z"
   id="path4-8" />
		<path
   class="st3"
   d="m 56.97,55 c -1.69,-2.81 -2.68,-6.09 -2.68,-9.61 0,-10.32 8.37,-18.68 18.68,-18.68 10.32,0 18.68,8.37 18.68,18.68 0,3.55 -1.01,6.85 -2.72,9.68 l 16.39,9.84 c 3.45,-5.7 5.43,-12.38 5.43,-19.52 0,-20.87 -16.92,-37.78 -37.78,-37.78 -20.87,0 -37.78,16.92 -37.78,37.78 0,7.12 1.97,13.77 5.39,19.45 z"
   id="path5" />
		<path
   class="st4"
   d="m 72.97,102.27 c 25.91,0 47.76,-17.33 54.63,-41.04 l 9.14,2.65 c 1.7,-5.88 2.66,-12.07 2.66,-18.5 0,-17.56 -6.82,-33.51 -17.95,-45.39 l -13.94,13.05 c 7.93,8.46 12.79,19.83 12.79,32.34 0,26.14 -21.19,47.33 -47.33,47.33 -13.65,0 -25.93,-5.78 -34.57,-15.02 l -6.99,6.52 c 10.37,11.12 25.16,18.06 41.56,18.06 z"
   id="path6" />
		<path
   class="st5"
   d="m 72.97,102.27 c -16.4,0 -31.19,-6.95 -41.57,-18.05 l -7.01,6.51 c 12.12,12.97 29.37,21.08 48.52,21.08 30.26,0 55.8,-20.24 63.82,-47.92 l -9.14,-2.65 c -6.85,23.7 -28.7,41.03 -54.62,41.03 z"
   id="path7" />
		<path
   class="st6"
   d="M 110.01,88.54 103.79,81.3 C 95.51,88.42 84.74,92.73 72.97,92.73 59.32,92.73 47.04,86.95 38.4,77.71 l -6.99,6.52 c 10.38,11.11 25.16,18.05 41.57,18.05 14.14,-0.01 27.08,-5.19 37.03,-13.74 z"
   id="path8" />
	</g>
</g></g><style
     type="text/css"
     id="style1">
	.st0{fill:#FFFFFF;}
	.st1{fill:#0047BB;}
	.st2{fill:#E8541E;}
	.st3{fill:#EEAF30;}
	.st4{fill:#3FCFD5;}
	.st5{fill:#056CEC;}
	.st6{fill:#6B80F6;}
</style></svg>
