<?xml version="1.0" encoding="UTF-8" standalone="no"?>
<!-- Created with Inkscape (http://www.inkscape.org/) -->

<svg
   width="147.869mm"
   height="174.16489mm"
   viewBox="0 0 147.869 174.16489"
   version="1.1"
   id="svg1"
   xml:space="preserve"
   xmlns="http://www.w3.org/2000/svg"
   xmlns:svg="http://www.w3.org/2000/svg"><defs
     id="defs1" /><g
     id="layer1"
     transform="translate(-21.333447,-49.260638)"><g
       id="g1"
       transform="matrix(0.13177833,0,0,0.13177833,21.333658,49.246542)"><circle
         style="fill:#324a5e"
         cx="254.214"
         cy="254.10699"
         r="254"
         id="circle1" /><rect
         x="126.214"
         y="261.707"
         style="fill:#e6e9ee"
         width="382"
         height="192.8"
         id="rect1" /><g
         id="g3">
	<path
   style="fill:#2c9984"
   d="m 138.614,274.107 v 168.4 h 357.6 v -168.4 z m 12,131.6 v -94.8 c 13.6,0 24.4,-10.8 24.4,-24.4 h 103.2 c -21.6,14.8 -36.4,41.6 -36.4,72 0,30.4 14.4,57.2 36.4,72 h -103.2 c 0,-14 -10.8,-24.8 -24.4,-24.8 z m 333.2,0 c -13.6,0 -24.4,10.8 -24.4,24.4 h -102.8 c 21.6,-14.8 36.4,-41.6 36.4,-72 0,-30.4 -14.4,-57.2 -36.4,-72 h 102.8 c 0,13.6 10.8,24.4 24.4,24.4 z"
   id="path1" />
	<circle
   style="fill:#2c9984"
   cx="439.814"
   cy="358.10699"
   r="26"
   id="circle2" />
	<circle
   style="fill:#2c9984"
   cx="194.614"
   cy="358.10699"
   r="26"
   id="circle3" />
</g><path
         style="fill:#e6e9ee"
         d="m 317.414,349.707 c -6.8,0 -12.4,-5.6 -12.4,-12.4 0,-6.8 5.6,-12.4 12.4,-12.4 3.6,0 6.8,1.6 9.2,4 3.2,3.2 8.4,3.6 12,0.4 3.2,-3.2 3.6,-8.4 0.4,-12 -3.6,-3.6 -8,-6.4 -12.8,-8 v -6 c 0,-4.8 -3.6,-8.4 -8.4,-8.4 -4.8,0 -8.4,3.6 -8.4,8.4 v 6 c -12,3.6 -20.8,14.8 -20.8,28 0,16 13.2,29.2 29.2,29.2 6.8,0 12.4,5.6 12.4,12.4 0,6.8 -5.6,12.4 -12.4,12.4 -3.6,0 -6.8,-1.6 -9.2,-4 -3.2,-3.2 -8.4,-3.6 -12,-0.4 -3.2,3.2 -3.6,8.4 -0.4,12 3.6,3.6 8,6.4 12.8,8 v 6 c 0,4.8 3.6,8.4 8.4,8.4 4.8,0 8.4,-3.6 8.4,-8.4 v -6 c 12,-3.6 20.8,-14.8 20.8,-28 0,-16 -13.2,-29.2 -29.2,-29.2 z"
         id="path3" /><rect
         x="109.23"
         y="63.278"
         transform="matrix(-0.6796,-0.7336,0.7336,-0.6796,158.8386,577.9357)"
         style="fill:#ffffff"
         width="192.802"
         height="382.005"
         id="rect3" /><g
         id="g5">
	<path
   style="fill:#4cdbc4"
   d="m 17.414,313.707 114.4,123.6 262.4,-242.8 -114.4,-123.6 z m 98.4,88.4 -64.4,-69.6 c 10,-9.2 10.4,-24.8 1.2,-34.4 l 75.6,-70 c -6,25.6 1.6,55.2 22.4,77.6 20.8,22.4 49.6,32 75.6,28 l -76,69.6 c -8.8,-9.6 -24.4,-10.4 -34.4,-1.2 z m 244.4,-226.4 c -10,9.2 -10.4,24.8 -1.2,34.4 l -75.6,70 c 6,-25.6 -1.6,-55.2 -22.4,-77.6 -20.8,-22.4 -49.6,-32 -75.6,-28 l 75.6,-70 c 9.2,10 24.8,10.4 34.4,1.2 z"
   id="path4" />
	<circle
   style="fill:#4cdbc4"
   cx="295.814"
   cy="170.907"
   r="26"
   id="circle4" />
	<circle
   style="fill:#4cdbc4"
   cx="115.814"
   cy="337.30701"
   r="26"
   id="circle5" />
</g><path
         style="fill:#ffffff"
         d="m 200.214,248.107 c -5.2,4.8 -13.2,4.4 -17.6,-0.8 -4.8,-5.2 -4.4,-13.2 0.8,-17.6 2.4,-2.4 6,-3.6 9.2,-3.2 4.8,0.4 8.8,-3.2 8.8,-7.6 0.4,-4.8 -3.2,-8.8 -7.6,-8.8 -5.2,-0.4 -10.4,0.8 -14.8,2.8 l -4,-4.4 c -3.2,-3.2 -8.4,-3.6 -12,-0.4 -3.2,3.2 -3.6,8.4 -0.4,12 l 4,4.4 c -6.4,10.8 -5.2,25.2 3.6,34.8 10.8,12 29.6,12.4 41.2,1.6 5.2,-4.8 13.2,-4.4 17.6,0.8 4.8,5.2 4.4,13.2 -0.8,17.6 -2.4,2.4 -6,3.6 -9.2,3.2 -4.8,-0.4 -8.8,3.2 -8.8,7.6 -0.4,4.8 3.2,8.8 7.6,8.8 5.2,0.4 10.4,-0.8 14.8,-2.8 l 4,4.4 c 3.2,3.2 8.4,3.6 12,0.4 3.2,-3.2 3.6,-8.4 0.4,-12 l -4,-4.4 c 6.4,-10.8 5.2,-25.2 -3.6,-34.8 -10.8,-12 -29.6,-12.8 -41.2,-1.6 z"
         id="path5" /></g><g
       id="g4"
       transform="matrix(0.26458333,0,0,0.26458333,52.078204,90.042987)"><g
         id="g2">
	<path
   style="fill:#094168"
   d="m 268.699,361.913 c 0,19.503 -15.817,124.668 -35.336,124.668 -19.495,0 -35.304,-105.173 -35.304,-124.668 0,-19.495 15.817,-35.32 35.304,-35.32 19.519,0 35.336,15.825 35.336,35.32 z"
   id="path1-7" />
	<path
   style="fill:#094168"
   d="m 387.057,361.913 c 0,19.503 -15.817,124.668 -35.336,124.668 -19.495,0 -35.304,-105.173 -35.304,-124.668 0,-19.495 15.817,-35.32 35.304,-35.32 19.519,0 35.336,15.825 35.336,35.32 z"
   id="path2" />
</g><path
         style="fill:#0f4f84"
         d="m 392.193,315.242 c 0,126.33 -44.599,84.259 -99.643,84.259 -55.028,0 -99.643,42.071 -99.643,-84.259 0,-72.231 44.631,-130.781 99.643,-130.781 55.028,0.009 99.643,58.558 99.643,130.781 z"
         id="path3-9" /><path
         style="fill:#9b5013"
         d="m 273.118,487.219 c 0,14.935 -17.802,16.904 -39.739,16.904 -21.937,0 -39.739,-1.961 -39.739,-16.904 0,-14.943 17.802,-35.509 39.739,-35.509 21.937,0 39.739,20.567 39.739,35.509 z"
         id="path4-3" /><path
         style="fill:#7c4412"
         d="m 273.118,487.219 c 0,14.935 -17.802,16.904 -39.739,16.904 -21.937,0 -39.739,-1.961 -39.739,-16.904"
         id="path5-8" /><path
         style="fill:#9b5013"
         d="m 391.468,487.219 c 0,14.935 -17.802,16.904 -39.739,16.904 -21.937,0 -39.739,-1.961 -39.739,-16.904 0,-14.943 17.802,-35.509 39.739,-35.509 21.937,0 39.739,20.567 39.739,35.509 z"
         id="path6" /><path
         style="fill:#7c4412"
         d="m 391.468,487.219 c 0,14.935 -17.802,16.904 -39.739,16.904 -21.937,0 -39.739,-1.961 -39.739,-16.904"
         id="path7" /><g
         id="g9">
	<path
   style="fill:#0f4f84"
   d="m 281.562,203.768 c 10.027,11.28 3.663,33.304 -14.218,49.223 -17.881,15.896 -114.018,85.024 -124.062,73.767 -10.012,-11.296 69.892,-98.714 87.773,-114.609 17.865,-15.895 40.479,-19.653 50.507,-8.381 z"
   id="path8" />
	<path
   style="fill:#0f4f84"
   d="m 303.53,203.768 c -10.027,11.28 -3.663,33.304 14.218,49.223 17.881,15.896 114.018,85.024 124.062,73.767 10.012,-11.296 -69.892,-98.714 -87.773,-114.609 -17.857,-15.895 -40.471,-19.653 -50.507,-8.381 z"
   id="path9" />
</g><rect
         x="271.91199"
         y="199.54601"
         style="fill:#e2ded3"
         width="41.354"
         height="141.131"
         id="rect9" /><path
         style="fill:#c6bfaf"
         d="m 271.873,233.669 c 6.75,0.622 13.627,1.024 20.693,1.024 7.05,0 13.926,-0.402 20.661,-1.024 v -34.123 h -41.354 z"
         id="path10" /><polygon
         style="fill:#9b5013"
         points="298.67,218.577 308.918,322.465 292.55,334.36 276.182,322.465 286.43,218.577 "
         id="polygon10" /><polyline
         style="fill:#7c4412"
         points="286.43,218.577 298.67,218.577 308.918,322.465 292.55,334.36 "
         id="polyline10" /><path
         style="fill:#f9c1ac"
         d="m 421.503,124.258 c 0,63.008 -57.738,94.681 -128.937,94.681 -71.215,0 -128.969,-31.673 -128.969,-94.681 C 163.597,61.235 221.35,0 292.566,0 363.765,0 421.503,61.235 421.503,124.258 Z"
         id="path11" /><path
         style="fill:#f2b09c"
         d="m 421.503,124.258 c 0,63.008 -57.738,94.681 -128.937,94.681 -71.215,0 -128.969,-31.673 -128.969,-94.681"
         id="path12" /><circle
         style="fill:#113e49"
         cx="231.228"
         cy="103.936"
         r="11.532"
         id="circle12" /><path
         d="m 242.76,103.936 c 0,6.388 -5.167,11.54 -11.54,11.54 -6.372,0 -11.524,-5.152 -11.524,-11.54"
         id="path13" /><path
         style="fill:#ffd3c5"
         d="m 253.977,127.992 c -0.614,0 -1.245,-0.221 -1.725,-0.717 -5.632,-5.624 -13.107,-8.72 -21.047,-8.72 h -0.016 c -7.94,0 -15.399,3.104 -21,8.712 -0.953,0.953 -2.489,0.977 -3.434,0.008 -0.953,-0.922 -0.985,-2.458 -0.032,-3.419 6.538,-6.546 15.218,-10.161 24.458,-10.161 h 0.016 c 9.263,0 17.952,3.592 24.505,10.145 0.937,0.937 0.937,2.505 0,3.434 -0.465,0.498 -1.079,0.718 -1.725,0.718 z"
         id="path14" /><circle
         style="fill:#113e49"
         cx="353.91101"
         cy="103.936"
         r="11.532"
         id="circle14" /><path
         d="m 342.348,103.936 c 0,6.388 5.151,11.54 11.54,11.54 6.372,0 11.524,-5.152 11.524,-11.54"
         id="path15" /><path
         style="fill:#ffd3c5"
         d="m 331.131,127.992 c 0.599,0 1.229,-0.221 1.709,-0.717 5.632,-5.624 13.107,-8.72 21.047,-8.72 h 0.016 c 7.94,0 15.415,3.104 21.016,8.712 0.937,0.953 2.473,0.977 3.434,0.008 0.953,-0.922 0.969,-2.458 0.016,-3.419 -6.506,-6.546 -15.218,-10.161 -24.458,-10.161 h -0.016 c -9.247,0 -17.936,3.592 -24.505,10.145 -0.922,0.937 -0.922,2.505 0,3.434 0.481,0.498 1.095,0.718 1.741,0.718 z"
         id="path16" /><path
         style="fill:#8d97a0"
         d="m 313.424,355.454 c 0,5.254 -4.261,9.515 -9.523,9.515 h -22.307 c -5.262,0 -9.523,-4.261 -9.523,-9.515 v 0 c 0,-5.262 4.261,-9.523 9.523,-9.523 h 22.307 c 5.261,0 9.523,4.261 9.523,9.523 z"
         id="path17" /><path
         style="fill:#a7b1b7"
         d="m 303.901,345.931 h -22.307 c -4.348,0 -7.861,2.962 -9.003,6.94 1.142,3.97 4.655,6.932 9.003,6.932 h 22.307 c 4.348,0 7.861,-2.962 9.003,-6.932 -1.142,-3.978 -4.655,-6.94 -9.003,-6.94 z"
         id="path18" /><path
         style="fill:#e2ded3"
         d="m 356.093,266.508 c 0,1.457 -1.174,2.623 -2.623,2.623 h -25.6 c -1.449,0 -2.615,-1.166 -2.615,-2.623 v 0 c 0,-1.457 1.166,-2.623 2.615,-2.623 h 25.6 c 1.449,0 2.623,1.166 2.623,2.623 z"
         id="path19" /><circle
         style="fill:#b20f0f"
         cx="316.05499"
         cy="141.95"
         r="8.8620005"
         id="circle19" /><polygon
         style="fill:#e2ded3"
         points="330.997,264.948 327.87,263.885 336.984,254.771 343.222,261.01 346.594,257.646 353.888,264.948 "
         id="polygon19" /><path
         style="fill:#a7b1b7"
         d="M 418.628,99.935 C 406.222,46.371 354.518,0 292.566,0 227.668,0 174.097,50.885 165.078,107.607 c 4.104,0.433 11.965,-1.103 15.762,-17.684 5.262,-22.977 24.292,-30.192 24.292,-30.192 -37.415,22.323 -11.815,43.323 -11.815,43.323 -1.969,-9.846 -13.123,-29.538 74.831,-34.792 87.946,-5.254 97.154,-24.615 97.154,-24.615 0,0 13.446,-1.961 17.384,26.915 2.284,16.769 26.6,26.096 35.942,29.373 z"
         id="path20" /><path
         style="fill:#9b5013"
         d="m 193.561,426.921 c 0,6.995 -5.679,12.65 -12.666,12.65 H 74.099 c -6.995,0 -12.65,-5.664 -12.65,-12.65 v -74.358 c 0,-7.003 5.664,-12.658 12.65,-12.658 h 106.795 c 6.995,0 12.666,5.664 12.666,12.658 v 74.358 z"
         id="path21" /><path
         style="fill:#bc601b"
         d="M 180.895,339.897 H 74.099 c -6.995,0 -12.65,5.664 -12.65,12.658 V 381.4 c 0,6.987 5.664,12.642 12.65,12.642 h 106.795 c 6.995,0 12.666,-5.664 12.666,-12.642 v -28.845 c 0.001,-6.994 -5.671,-12.658 -12.665,-12.658 z"
         id="path22" /><path
         style="fill:#a7b1b7"
         d="m 136.752,408.371 c 0,5.112 -4.128,9.255 -9.255,9.255 v 0 c -5.112,0 -9.255,-4.135 -9.255,-9.255 v -21.457 c 0,-5.12 4.135,-9.263 9.255,-9.263 v 0 c 5.12,0 9.255,4.135 9.255,9.263 z"
         id="path23" /><path
         style="fill:#c8d5db"
         d="m 127.505,377.651 c -5.112,0 -9.255,4.135 -9.255,9.263 v 4.435 c 0,5.112 4.135,9.255 9.255,9.255 5.12,0 9.255,-4.135 9.255,-9.255 v -4.435 c -0.008,-5.12 -4.135,-9.263 -9.255,-9.263 z"
         id="path24" /><path
         style="fill:#754719"
         d="m 158.311,337.684 h -8.885 c 0,-6.12 -4.978,-11.106 -11.106,-11.106 h -21.638 c -6.12,0 -11.099,4.986 -11.099,11.106 H 96.69 c 0,-11.012 8.98,-19.984 19.992,-19.984 h 21.638 c 11.028,0 19.991,8.972 19.991,19.984 z"
         id="path25" /></g></g></svg>
