<svg xmlns="http://www.w3.org/2000/svg" version="1.1" xmlns:xlink="http://www.w3.org/1999/xlink" x="0" y="0" viewBox="0 0 512 512" style="enable-background:new 0 0 512 512" xml:space="preserve" class=""><g><path fill="#1d2e79" d="M245.002 21.996C109.691 21.996 0 131.687 0 266.998c0 27.273 4.462 53.502 12.686 78.004L138.63 487.764C170.802 503.294 206.885 512 245.002 512c135.311 0 245.002-109.691 245.002-245.002S380.313 21.996 245.002 21.996z" opacity="1" data-original="#1d2e79" class=""/><path fill="#27a6ff" d="m332.281 483.619-32.293-32.293 19.5-49.146a11.5 11.5 0 0 0-2.558-12.373l-81.91-82.035-22.324-10.443-10.677 9.943 93.302 93.452-19.5 49.146a11.5 11.5 0 0 0 2.558 12.373l37.639 37.639c4.491 4.491 11.773 4.491 16.263 0 4.491-4.491 4.491-11.772 0-16.263z" opacity="1" data-original="#27a6ff"/><circle cx="324.149" cy="491.75" r="20.25" fill="#58d4fa" opacity="1" data-original="#58d4fa"/><path fill="#ffc242" d="m499.882 316.017-37.639-37.639a11.5 11.5 0 0 0-12.373-2.558l-49.146 19.5-79.885-80.012-10.977 10.574 5.265 16.254 74.68 74.794a11.5 11.5 0 0 0 12.373 2.558l49.146-19.5 32.293 32.293c4.491 4.491 11.773 4.491 16.264 0 4.49-4.491 4.49-11.772-.001-16.264z" opacity="1" data-original="#ffc242" class=""/><path fill="#02c0fc" d="M426.396 410.133 293.558 277.168l-13.363 1.13-4.278 13.755 134.215 134.343c4.491 4.491 11.772 4.491 16.263 0 4.492-4.491 4.492-11.772.001-16.263z" opacity="1" data-original="#02c0fc"/><circle cx="419.499" cy="419.499" r="20.25" fill="#64f9ea" opacity="1" data-original="#64f9ea"/><circle cx="491.75" cy="324.149" r="20.25" fill="#fef156" opacity="1" data-original="#fef156"/><circle cx="221.029" cy="209.797" r="101.091" fill="#3f57a0" opacity="1" data-original="#3f57a0" class=""/><circle cx="221.029" cy="209.797" r="42.453" fill="#02c0fc" opacity="1" data-original="#02c0fc"/><path fill="#ffc7ab" d="M305.144 155.765c-7.912 7.912-7.445 21.154 1.399 28.437 7.689 6.332 19.037 5.46 26.081-1.583l2.786-2.785c-7.911 7.911-7.445 21.154 1.399 28.437 7.689 6.332 19.037 5.46 26.081-1.583l8.771-8.771c-7.132 7.132-7.132 18.802 0 25.934l1.233 1.233c7.132 7.132 18.802 7.132 25.934 0l61.119-61.119c25.875-25.875 22.708-47.58 32.218-57.09l5.371-5.355c19.272-19.216 19.288-50.426.035-69.661l-7.304-7.298c-21.938-10.186-54.404-11.929-74.154 4.821l-87.037 73.775z" opacity="1" data-original="#ffc7ab" class=""/><path fill="#58d4fa" d="m58.488 323.098-15.833-19.199-22.337 4.702a61.99 61.99 0 0 0-7.631 36.401 243.532 243.532 0 0 0 13.603 32.484l31.406-15.938 4.452-24.483a32.471 32.471 0 0 0-3.66-13.967z" opacity="1" data-original="#58d4fa"/><path fill="#e8f8fc" d="M211.286 216.033c-8.314-8.314-21.792-8.314-30.105-.001l-14.627 14.627c-8.313 8.313-8.314 21.792 0 30.106 8.313 8.313 21.792 8.313 30.105 0l14.627-14.627c8.314-8.314 8.314-21.792 0-30.105zM212.355 389.959c-6.773-7.46-17.534-8.821-25.789-4.126 7.647-8.189 7.499-21.017-.485-29-6.761-6.761-16.997-7.9-24.95-3.451l1.756-1.756c7.725-7.726 8.548-21.111 1.225-29.22-6.282-6.957-16.022-8.637-24.003-5.09l-31.747 6.864-44.493 56.203 7.163 59.114a246.638 246.638 0 0 0 16.339 15.047h13.946v10.902a244.84 244.84 0 0 0 37.315 22.32 82.384 82.384 0 0 0 17.131-13.138l25.738-25.738-1.324-9.063 13.748-3.361 17.258-17.258c7.953-7.955 8.733-20.92 1.172-29.249z" opacity="1" data-original="#e8f8fc"/><path fill="#ade9f7" d="M84.219 253.854c-7.358-5.87-18.082-4.664-23.952 2.694l-23.163 29.034 10.384 16.675 17.461 3.08 21.964-27.53c5.87-7.358 4.665-18.082-2.694-23.953z" opacity="1" data-original="#ade9f7"/><circle cx="42.654" cy="307.265" r="23.779" fill="#27a6ff" opacity="1" data-original="#27a6ff"/><path fill="#ffaa7b" d="M480.118 14.413c-19.195-19.195-50.308-19.221-69.535-.059a20.39 20.39 0 0 1-12.093 5.84l-56.602 8.396c-21.288 3.158-38.554 18.927-43.248 39.463l10.222 10.495.154 19.01-81.384 81.384c-7.911 7.912-7.445 21.155 1.4 28.438 7.69 6.332 19.037 5.459 26.08-1.584l50.031-50.031L420.678 40.231c18.783-18.783 49.702-24.882 72.062-13.196z" opacity="1" data-original="#ffaa7b"/><path fill="#f7965b" d="m299.009 66.583 16.121-4.289c10.917-2.904 18.644 10.507 10.656 18.495l-16.769 16.769c-3.001-3.905-12.792-8.696-11.409-23.116a49.915 49.915 0 0 1 1.401-7.859z" opacity="1" data-original="#f7965b" class=""/><path fill="#ade9f7" d="M156.215 272.466c-8.243-9.003-22.232-9.235-30.771-.696l-86.269 86.269a82.371 82.371 0 0 0-13.628 17.968 245.344 245.344 0 0 0 33.557 50.569l18.008-5.194v-34.75l30.217-36.537 32.78-32.78 14.969-14.969c7.926-7.928 8.707-21.612 1.137-29.88z" opacity="1" data-original="#ade9f7"/><circle cx="160.093" cy="267.226" r="20.083" fill="#02c0fc" opacity="1" data-original="#02c0fc"/><path fill="#3feadd" d="m143.147 398.112-56.131 56.131a246.144 246.144 0 0 0 14.678 11.477l47.991-47.992 31.487 31.487 13.077-13.077-38.026-38.026c-3.609-3.611-9.465-3.611-13.076 0z" opacity="1" data-original="#3feadd"/><path fill="#02c0fc" d="M95.85 350.815 67.515 379.15a9.25 9.25 0 0 0-2.596 7.981l4.497 28.478-10.612 10.612a246.195 246.195 0 0 0 12.551 13.605l14.469-14.469a9.245 9.245 0 0 0 2.595-7.98l-4.496-28.479 25.005-25.005c3.611-3.611 3.611-9.466 0-13.077s-9.467-3.612-13.078-.001z" opacity="1" data-original="#02c0fc"/></g></svg>