<?xml version="1.0" encoding="UTF-8" standalone="no"?>
<!-- Uploaded to: SVG Repo, www.svgrepo.com, Generator: SVG Repo Mixer Tools -->

<svg
   width="991.30017"
   height="996.78497"
   viewBox="0 0 158.60803 159.4856"
   aria-hidden="true"
   role="img"
   class="iconify iconify--noto"
   preserveAspectRatio="xMidYMid"
   version="1.1"
   id="svg69"
   xmlns="http://www.w3.org/2000/svg"
   xmlns:svg="http://www.w3.org/2000/svg">
  <defs
     id="defs69" />
  <linearGradient
     id="IconifyId17ecdb2904d178eab21106"
     gradientUnits="userSpaceOnUse"
     x1="64"
     y1="119.49"
     x2="64"
     y2="39.926998"
     gradientTransform="matrix(1,0,0,-1,-3.8299999,163.49559)">
    <stop
       offset=".003"
       stop-color="#424242"
       id="stop1" />
    <stop
       offset=".271"
       stop-color="#353535"
       id="stop2" />
    <stop
       offset=".764"
       stop-color="#131313"
       id="stop3" />
    <stop
       offset="1"
       id="stop4" />
  </linearGradient>
  <path
     d="M 116.17,123.49559 H 4.1700001 c -2.21,0 -4.00000002,-1.79 -4.00000002,-4 V 47.495594 c 0,-2.21 1.79000002,-4 4.00000002,-4 H 116.17 c 2.21,0 4,1.79 4,4 v 71.999996 c 0,2.21 -1.79,4 -4,4 z"
     fill="url(#IconifyId17ecdb2904d178eab21106)"
     id="path4"
     style="fill:url(#IconifyId17ecdb2904d178eab21106)" />
  <linearGradient
     id="IconifyId17ecdb2904d178eab21107"
     gradientUnits="userSpaceOnUse"
     x1="64"
     y1="119.49"
     x2="64"
     y2="39.926998"
     gradientTransform="matrix(1,0,0,-1,-3.8299999,163.49559)">
    <stop
       offset=".001"
       stop-color="#bfbebe"
       id="stop5" />
    <stop
       offset=".15"
       stop-color="#212121"
       stop-opacity="0"
       id="stop6" />
    <stop
       offset=".776"
       stop-color="#212121"
       stop-opacity="0"
       id="stop7" />
    <stop
       offset="1"
       stop-color="#bfbebe"
       id="stop8" />
  </linearGradient>
  <path
     d="M 116.17,123.49559 H 4.1700001 c -2.21,0 -4.00000002,-1.79 -4.00000002,-4 V 47.495594 c 0,-2.21 1.79000002,-4 4.00000002,-4 H 116.17 c 2.21,0 4,1.79 4,4 v 71.999996 c 0,2.21 -1.79,4 -4,4 z"
     opacity="0.3"
     fill="url(#IconifyId17ecdb2904d178eab21107)"
     id="path8"
     style="fill:url(#IconifyId17ecdb2904d178eab21107)" />
  <linearGradient
     id="IconifyId17ecdb2904d178eab21108"
     gradientUnits="userSpaceOnUse"
     x1="4.592"
     y1="80"
     x2="123.936"
     y2="80"
     gradientTransform="matrix(1,0,0,-1,-3.8299999,163.49559)">
    <stop
       offset=".001"
       stop-color="#bfbebe"
       id="stop9" />
    <stop
       offset=".1"
       stop-color="#212121"
       stop-opacity="0"
       id="stop10" />
    <stop
       offset=".9"
       stop-color="#212121"
       stop-opacity="0"
       id="stop11" />
    <stop
       offset="1"
       stop-color="#bfbebe"
       id="stop12" />
  </linearGradient>
  <path
     d="M 116,123.49559 H 4.0000001 c -2.21,0 -4.000000023706057,-1.79 -4.000000023706057,-4 V 47.495594 c 0,-2.21 1.790000023706056,-4 4.000000023706057,-4 H 116 c 2.21,0 4,1.79 4,4 v 71.999996 c 0,2.21 -1.79,4 -4,4 z"
     opacity="0.3"
     fill="url(#IconifyId17ecdb2904d178eab21108)"
     id="path12"
     style="fill:url(#IconifyId17ecdb2904d178eab21108)" />
  <g
     fill="#76ff03"
     id="g23"
     transform="translate(-3.8299999,35.495594)">
    <path
       d="m 12,16 h 24 v 4 H 12 Z"
       id="path13" />
    <path
       d="m 86,16 h 16 v 4 H 86 Z"
       id="path14" />
    <path
       d="m 108,16 h 8 v 4 h -8 z"
       id="path15" />
    <path
       d="m 20,28 h 8 v 4 h -8 z"
       id="path16" />
    <path
       d="m 12,40 h 16 v 4 H 12 Z"
       id="path17" />
    <path
       d="m 12,52 h 8 v 4 h -8 z"
       id="path18" />
    <path
       d="m 98,52 h 12 v 4 H 98 Z"
       id="path19" />
    <path
       d="m 104,40 h 12 v 4 h -12 z"
       id="path20" />
    <path
       d="m 12,64 h 16 v 4 H 12 Z"
       id="path21" />
    <path
       d="m 96,64 h 20 v 4 H 96 Z"
       id="path22" />
    <path
       d="m 100,28 h 12 v 4 h -12 z"
       id="path23" />
  </g>
  <path
     d="m 95.07,115.25559 c -1.25,-2.27 0.34,-4.58 3.06,-7.44 4.31,-4.54 9,-15.069996 4.64,-25.759996 0.03,-0.06 -0.86,-1.86 -0.83,-1.92 l -1.79,-0.09 c -0.57,-0.08 -20.26,-0.12 -39.97,-0.12 -19.71,0 -39.4,0.04 -39.97,0.12 0,0 -2.65,1.95 -2.63,2.01 -4.35,10.69 0.33,21.219996 4.64,25.759996 2.71,2.86 4.3,5.17 3.06,7.44 -1.21,2.21 -4.81,2.53 -4.81,2.53 0,0 0.83,2.26 2.83,3.48 1.85,1.13 4.13,1.39 5.7,1.43 0,0 6.15,8.51 22.23,8.51 h 17.9 c 16.08,0 22.23,-8.51 22.23,-8.51 1.57,-0.04 3.85,-0.3 5.7,-1.43 2,-1.22 2.83,-3.48 2.83,-3.48 0,0 -3.61,-0.33 -4.82,-2.53 z"
     fill="#543930"
     id="path24" />
  <radialGradient
     id="IconifyId17ecdb2904d178eab21109"
     cx="99.638"
     cy="45.941002"
     r="23.419001"
     gradientTransform="matrix(1,0,0,0.4912,-24.885,94.987594)"
     gradientUnits="userSpaceOnUse">
    <stop
       offset=".728"
       stop-color="#6d4c41"
       stop-opacity="0"
       id="stop24" />
    <stop
       offset="1"
       stop-color="#6d4c41"
       id="stop25" />
  </radialGradient>
  <path
     d="m 60.16,131.19559 v -9.44 l 28.57,-2.26 2.6,3.2 c 0,0 -6.15,8.51 -22.23,8.51 z"
     fill="url(#IconifyId17ecdb2904d178eab21109)"
     id="path25"
     style="fill:url(#IconifyId17ecdb2904d178eab21109)" />
  <radialGradient
     id="IconifyId17ecdb2904d178eab21110"
     cx="76.572998"
     cy="49.423"
     r="6.921"
     gradientTransform="matrix(-0.9057,0.4238,-0.3144,-0.6719,182.712,114.82559)"
     gradientUnits="userSpaceOnUse">
    <stop
       offset=".663"
       stop-color="#6d4c41"
       id="stop26" />
    <stop
       offset="1"
       stop-color="#6d4c41"
       stop-opacity="0"
       id="stop27" />
  </radialGradient>
  <path
     d="m 91.27,118.56559 c -4.28,-6.5 5.21,-8.93 5.21,-8.93 l 0.01,0.01 c -1.65,2.05 -2.4,3.84 -1.43,5.61 1.21,2.21 4.81,2.53 4.81,2.53 0,0 -4.91,4.36 -8.6,0.78 z"
     fill="url(#IconifyId17ecdb2904d178eab21110)"
     id="path27"
     style="fill:url(#IconifyId17ecdb2904d178eab21110)" />
  <radialGradient
     id="IconifyId17ecdb2904d178eab21111"
     cx="94.509003"
     cy="69.001999"
     r="30.399"
     gradientTransform="matrix(-0.0746,-0.9972,0.8311,-0.0622,29.588,193.03159)"
     gradientUnits="userSpaceOnUse">
    <stop
       offset=".725"
       stop-color="#6d4c41"
       stop-opacity="0"
       id="stop28" />
    <stop
       offset="1"
       stop-color="#6d4c41"
       id="stop29" />
  </radialGradient>
  <path
     d="m 102.79,82.055594 c 4.25,10.35 -0.22,21.009996 -4.41,25.509996 -0.57,0.62 -3.01,3.01 -3.57,4.92 0,0 -9.54,-13.309996 -12.39,-21.129996 -0.57,-1.58 -1.1,-3.2 -1.17,-4.88 -0.05,-1.26 0.14,-2.76 0.87,-3.83 0.89,-1.31 20.16,-1.7 20.16,-1.7 0,0.01 0.51,1.11 0.51,1.11 z"
     fill="url(#IconifyId17ecdb2904d178eab21111)"
     id="path29"
     style="fill:url(#IconifyId17ecdb2904d178eab21111)" />
  <radialGradient
     id="IconifyId17ecdb2904d178eab21112"
     cx="44.310001"
     cy="69.001999"
     r="30.399"
     gradientTransform="matrix(0.0746,-0.9972,-0.8311,-0.0622,94.52,142.97259)"
     gradientUnits="userSpaceOnUse">
    <stop
       offset=".725"
       stop-color="#6d4c41"
       stop-opacity="0"
       id="stop30" />
    <stop
       offset="1"
       stop-color="#6d4c41"
       id="stop31" />
  </radialGradient>
  <path
     d="m 17.57,82.055594 c -4.25,10.35 0.22,21.009996 4.41,25.509996 0.58,0.62 3.01,3.01 3.57,4.92 0,0 9.54,-13.309996 12.39,-21.129996 0.58,-1.58 1.1,-3.2 1.17,-4.88 0.05,-1.26 -0.14,-2.76 -0.87,-3.83 -0.89,-1.31 -1.93,-0.96 -3.44,-0.96 -2.88,0 -15.49,-0.74 -16.47,-0.74 0.01,0.01 -0.76,1.11 -0.76,1.11 z"
     fill="url(#IconifyId17ecdb2904d178eab21112)"
     id="path31"
     style="fill:url(#IconifyId17ecdb2904d178eab21112)" />
  <radialGradient
     id="IconifyId17ecdb2904d178eab21113"
     cx="49.438999"
     cy="45.941002"
     r="23.419001"
     gradientTransform="matrix(-1,0,0,0.4912,95.048,94.987594)"
     gradientUnits="userSpaceOnUse">
    <stop
       offset=".728"
       stop-color="#6d4c41"
       stop-opacity="0"
       id="stop32" />
    <stop
       offset="1"
       stop-color="#6d4c41"
       id="stop33" />
  </radialGradient>
  <path
     d="m 60.2,131.19559 v -9.44 l -28.57,-2.26 -2.6,3.2 c 0,0 6.15,8.51 22.23,8.51 z"
     fill="url(#IconifyId17ecdb2904d178eab21113)"
     id="path33"
     style="fill:url(#IconifyId17ecdb2904d178eab21113)" />
  <radialGradient
     id="IconifyId17ecdb2904d178eab21114"
     cx="26.374001"
     cy="49.423"
     r="6.921"
     gradientTransform="matrix(0.9057,0.4238,0.3144,-0.6719,-16.882,136.10059)"
     gradientUnits="userSpaceOnUse">
    <stop
       offset=".663"
       stop-color="#6d4c41"
       id="stop34" />
    <stop
       offset="1"
       stop-color="#6d4c41"
       stop-opacity="0"
       id="stop35" />
  </radialGradient>
  <path
     d="m 29.09,118.56559 c 4.28,-6.5 -5.21,-8.93 -5.21,-8.93 l -0.01,0.01 c 1.65,2.05 2.4,3.84 1.43,5.61 -1.21,2.21 -4.81,2.53 -4.81,2.53 0,0 4.91,4.36 8.6,0.78 z"
     fill="url(#IconifyId17ecdb2904d178eab21114)"
     id="path35"
     style="fill:url(#IconifyId17ecdb2904d178eab21114)" />
  <g
     id="g36"
     transform="translate(-3.8299999,35.495594)">
    <path
       d="M 91.33,50.34 H 36.67 c -5.89,0 -10.71,5.13 -10.71,11.41 0,6.28 4.82,11.41 10.71,11.41 h 54.65 c 5.89,0 10.71,-5.14 10.71,-11.41 0.01,-6.27 -4.81,-11.41 -10.7,-11.41 z"
       fill="#99674f"
       id="path36" />
  </g>
  <g
     id="g37"
     transform="translate(-3.8299999,35.495594)">
    <path
       d="m 64,10.98 c -17.4,0 -33.52,18.61 -33.52,45.4 0,26.64 16.61,39.81 33.52,39.81 16.91,0 33.52,-13.17 33.52,-39.81 C 97.52,29.59 81.4,10.98 64,10.98 Z"
       fill="#ba8d68"
       id="path37" />
  </g>
  <g
     fill="#613e31"
     id="g39"
     transform="translate(-3.8299999,35.495594)">
    <path
       d="m 54.8,49.72 c -0.93,-1.23 -3.07,-3.01 -7.23,-3.01 -4.16,0 -6.31,1.79 -7.23,3.01 -0.41,0.54 -0.31,1.17 -0.02,1.55 0.26,0.35 1.04,0.68 1.9,0.39 0.86,-0.29 2.54,-1.16 5.35,-1.18 2.81,0.02 4.49,0.89 5.35,1.18 0.86,0.29 1.64,-0.03 1.9,-0.39 0.28,-0.37 0.39,-1 -0.02,-1.55 z"
       id="path38" />
    <path
       d="m 87.67,49.72 c -0.93,-1.23 -3.07,-3.01 -7.23,-3.01 -4.16,0 -6.31,1.79 -7.23,3.01 -0.41,0.54 -0.31,1.17 -0.02,1.55 0.26,0.35 1.04,0.68 1.9,0.39 0.86,-0.29 2.54,-1.16 5.35,-1.18 2.81,0.02 4.49,0.89 5.35,1.18 0.86,0.29 1.64,-0.03 1.9,-0.39 0.28,-0.37 0.39,-1 -0.02,-1.55 z"
       id="path39" />
  </g>
  <g
     fill="#49362e"
     id="g40"
     transform="translate(-3.8299999,35.495594)">
    <ellipse
       cx="47.560001"
       cy="58.720001"
       rx="4.9299998"
       ry="5.0999999"
       id="ellipse39" />
    <ellipse
       cx="80.440002"
       cy="58.720001"
       rx="4.9299998"
       ry="5.0999999"
       id="ellipse40" />
  </g>
  <path
     d="m 68.59,111.54559 c -3.18,1.89 -13.63,1.89 -16.81,0 -1.83,-1.09 -3.7,0.58 -2.94,2.24 0.75,1.63 6.44,5.42 11.37,5.42 4.93,0 10.55,-3.79 11.3,-5.42 0.75,-1.66 -1.09,-3.33 -2.92,-2.24 z"
     fill="#5d4037"
     id="path40" />
  <path
     d="m 64.03,103.45559 c -0.11,-0.04 -0.21,-0.07 -0.32,-0.08 h -7.08 c -0.11,0.01 -0.22,0.04 -0.32,0.08 -0.64,0.26 -0.99,0.92 -0.69,1.63 0.3,0.71 1.71,2.69 4.55,2.69 2.84,0 4.25,-1.99 4.55,-2.69 0.3,-0.7 -0.05,-1.37 -0.69,-1.63 z"
     fill="#99674f"
     id="path41" />
  <path
     d="m 100.24,60.515594 c -2.44,-3.69 -7.91,-8.64 -12.82,-8.97 -0.79,-4.72 -5.84,-8.72 -10.73,-10.27 -13.23,-4.19 -21.84,0.51 -26.46,3.03 -0.96,0.52 -7.17,3.97 -11.51,1.5 -2.72,-1.55 -2.67,-5.74 -2.67,-5.74 0,0 -8.52,3.25 -5.61,12.3 -2.93,0.12 -6.77,1.36 -8.8,5.47 -2.42,4.9 -1.56,8.99 -0.86,10.95 -2.52,2.14 -5.69,6.69 -3.52,12.6 1.64,4.45 8.17,6.5 8.17,6.5 -0.62,10.74 2.28,15.949996 2.28,15.949996 0,0 4.69,-18.449996 4.3,-21.269996 0,0 7.76,-1.54 16.57,-6.58 5.95,-3.41 10.02,-7.4 16.71,-8.91 10.18,-2.29 12.45,5.08 12.45,5.08 0,0 9.42,-1.81 12.26,11.27 1.17,5.38 1.93,14.3 2.57,19.769996 -0.06,-0.48 3.24,-6.329996 3.86,-12.329996 0.16,-1.55 4.34,-3.6 6.14,-10.26 2.39,-8.88 -0.56,-17.42 -2.33,-20.09 z"
     fill="#543930"
     id="path42" />
  <g
     id="g53"
     transform="translate(-3.8299999,35.495594)">
    <radialGradient
       id="IconifyId17ecdb2904d178eab21115"
       cx="82.018997"
       cy="85.037003"
       r="35.632999"
       gradientTransform="matrix(0.3076,0.9515,0.706,-0.2282,-3.248,-15.675)"
       gradientUnits="userSpaceOnUse">
      <stop
         offset=".699"
         stop-color="#6d4c41"
         stop-opacity="0"
         id="stop42" />
      <stop
         offset="1"
         stop-color="#6d4c41"
         id="stop43" />
    </radialGradient>
    <path
       d="m 100.22,55.41 c 0.16,-1.55 4.34,-3.6 6.14,-10.26 0.19,-0.71 0.35,-1.43 0.5,-2.15 1.46,-8.09 -1.16,-15.52 -2.79,-17.98 -2.26,-3.41 -7.1,-7.89 -11.69,-8.81 -0.4,-0.05 -0.79,-0.1 -1.16,-0.12 0,0 0.33,2.15 -0.54,3.86 -1.12,2.22 -3.41,2.75 -3.41,2.75 11.97,11.97 11.12,22 12.95,32.71 z"
       fill="url(#IconifyId17ecdb2904d178eab21115)"
       id="path43"
       style="fill:url(#IconifyId17ecdb2904d178eab21115)" />
    <radialGradient
       id="IconifyId17ecdb2904d178eab21116"
       cx="47.279999"
       cy="123.891"
       r="9.3430004"
       gradientTransform="matrix(0.8813,0.4726,0.5603,-1.045,-63.803,111.232)"
       gradientUnits="userSpaceOnUse">
      <stop
         offset=".58"
         stop-color="#6d4c41"
         id="stop44" />
      <stop
         offset="1"
         stop-color="#6d4c41"
         stop-opacity="0"
         id="stop45" />
    </radialGradient>
    <path
       d="m 56.95,7.3 c -1.1,0.53 -2.06,1.06 -2.9,1.51 -0.96,0.52 -7.17,3.97 -11.51,1.5 -2.67,-1.52 -2.67,-5.58 -2.67,-5.72 -1.23,1.57 -4.95,12.78 5.93,13.53 4.69,0.32 7.58,-3.77 9.3,-7.23 0.62,-1.27 1.59,-3.1 1.85,-3.59 z"
       fill="url(#IconifyId17ecdb2904d178eab21116)"
       id="path45"
       style="fill:url(#IconifyId17ecdb2904d178eab21116)" />
    <radialGradient
       id="IconifyId17ecdb2904d178eab21117"
       cx="158.966"
       cy="62.813"
       r="28.695999"
       gradientTransform="matrix(-0.9378,-0.3944,-0.2182,0.5285,230.932,50.574)"
       gradientUnits="userSpaceOnUse">
      <stop
         offset=".699"
         stop-color="#6d4c41"
         stop-opacity="0"
         id="stop46" />
      <stop
         offset="1"
         stop-color="#6d4c41"
         id="stop47" />
    </radialGradient>
    <path
       d="m 79.16,5.38 c 7.32,1.98 11.23,5.87 12.08,10.68 0.26,1.48 0.77,15.08 -25.23,-0.4 C 56.34,9.9 58.98,6.3 60.11,5.89 64.53,4.29 70.96,3.16 79.16,5.38 Z"
       fill="url(#IconifyId17ecdb2904d178eab21117)"
       id="path47"
       style="fill:url(#IconifyId17ecdb2904d178eab21117)" />
    <radialGradient
       id="IconifyId17ecdb2904d178eab21118"
       cx="43.528999"
       cy="115.367"
       r="8.5749998"
       gradientTransform="matrix(1,0,0,-1.2233,0,153.762)"
       gradientUnits="userSpaceOnUse">
      <stop
         offset=".702"
         stop-color="#6d4c41"
         stop-opacity="0"
         id="stop48" />
      <stop
         offset="1"
         stop-color="#6d4c41"
         id="stop49" />
    </radialGradient>
    <path
       d="M 39.84,4.59 C 39.83,4.6 39.81,4.6 39.78,4.62 H 39.77 C 38.84,5.01 31.53,8.4 34.26,16.88 l 7.78,1.25 C 35.15,11.15 39.87,4.58 39.87,4.58 c 0,0 -0.02,0 -0.03,0.01 z"
       fill="url(#IconifyId17ecdb2904d178eab21118)"
       id="path49"
       style="fill:url(#IconifyId17ecdb2904d178eab21118)" />
    <radialGradient
       id="IconifyId17ecdb2904d178eab21119"
       cx="42.348999"
       cy="100.23"
       r="16.083"
       gradientTransform="matrix(-0.9657,-0.2598,-0.2432,0.9037,107.62,-51.805)"
       gradientUnits="userSpaceOnUse">
      <stop
         offset=".66"
         stop-color="#6d4c41"
         stop-opacity="0"
         id="stop50" />
      <stop
         offset="1"
         stop-color="#6d4c41"
         id="stop51" />
    </radialGradient>
    <path
       d="m 39.07,17.64 -4.81,-0.77 c -0.19,0 -0.83,0.06 -1.18,0.11 -2.71,0.38 -5.9,1.78 -7.63,5.36 -1.86,3.86 -1.81,7.17 -1.3,9.38 0.15,0.74 0.45,1.58 0.45,1.58 0,0 2.38,-2.26 8.05,-2.41 z"
       fill="url(#IconifyId17ecdb2904d178eab21119)"
       id="path51"
       style="fill:url(#IconifyId17ecdb2904d178eab21119)" />
    <radialGradient
       id="IconifyId17ecdb2904d178eab21120"
       cx="38.533001"
       cy="84.699997"
       r="16.886"
       gradientTransform="matrix(0.9907,0.1363,0.1915,-1.3921,-15.859,155.958)"
       gradientUnits="userSpaceOnUse">
      <stop
         offset=".598"
         stop-color="#6d4c41"
         stop-opacity="0"
         id="stop52" />
      <stop
         offset="1"
         stop-color="#6d4c41"
         id="stop53" />
    </radialGradient>
    <path
       d="m 24.37,33.49 c -2.37,2.1 -5.56,6.79 -3.21,12.61 1.77,4.39 8.09,6.29 8.09,6.29 0,0.02 1.26,0.4 1.91,0.4 l 1.48,-21.9 c -3.03,0 -5.94,0.91 -7.82,2.22 0.03,0.03 -0.46,0.35 -0.45,0.38 z"
       fill="url(#IconifyId17ecdb2904d178eab21120)"
       id="path53"
       style="fill:url(#IconifyId17ecdb2904d178eab21120)" />
  </g>
  <g
     id="g58"
     transform="translate(-3.8299999,35.495594)">
    <linearGradient
       id="IconifyId17ecdb2904d178eab21121"
       gradientUnits="userSpaceOnUse"
       x1="5.625"
       y1="9.8249998"
       x2="22.466999"
       y2="9.8249998"
       gradientTransform="matrix(1,0,0,-1,0,128)">
      <stop
         offset="0"
         stop-color="#fb8c00"
         id="stop54" />
      <stop
         offset=".482"
         stop-color="#f67f00"
         id="stop55" />
      <stop
         offset="1"
         stop-color="#ef6c00"
         id="stop56" />
    </linearGradient>
    <path
       d="m 7.63,123.98 h 12.83 c 1.12,-0.09 2.01,-1.18 2.01,-2.52 v -0.65 c 0,-3.58 -1.61,-6.71 -4.02,-8.45 0,0.15 0.01,0.3 0.01,0.45 0,4.1 -1.98,7.42 -4.41,7.42 -2.43,0 -4.41,-3.32 -4.41,-7.42 0,-0.15 0.01,-0.3 0.01,-0.45 -2.41,1.75 -4.02,4.87 -4.02,8.45 v 0.65 c -0.01,1.35 0.88,2.43 2,2.52 z"
       fill="url(#IconifyId17ecdb2904d178eab21121)"
       id="path56"
       style="fill:url(#IconifyId17ecdb2904d178eab21121)" />
    <g
       id="g57">
      <path
         d="m 14.05,120.24 c 9,0 4.41,-3.32 4.41,-7.42 0,-0.15 -0.01,-0.3 -0.01,-0.45 -1.28,-0.93 -2.79,-1.48 -4.4,-1.48 -1.61,0 -3.12,0.55 -4.4,1.48 -0.01,0.15 -0.01,0.3 -0.01,0.45 -0.01,4.1 -4.64,7.42 4.41,7.42 z"
         fill="#e14301"
         id="path57" />
    </g>
  </g>
  <g
     id="g59"
     transform="translate(-3.8299999,35.495594)">
    <linearGradient
       id="IconifyId17ecdb2904d178eab21122"
       gradientUnits="userSpaceOnUse"
       x1="20.427999"
       y1="15.083"
       x2="10.747"
       y2="28.860001"
       gradientTransform="matrix(1,0,0,-1,0,128)">
      <stop
         offset="0"
         stop-color="#a47b62"
         id="stop58" />
      <stop
         offset=".5"
         stop-color="#ba8d68"
         id="stop59" />
    </linearGradient>
    <path
       d="m 27.98,106.8 c -0.11,-2.84 -2.23,-8.7 -5,-9.19 a 0.592,0.592 0 0 1 -0.41,-0.25 c -0.44,-0.67 -1.85,-2.47 -4.43,-1.05 -0.96,0.53 -1.3,1 -1.14,1.68 -0.12,0.14 -0.34,0.31 -0.66,0.18 -1.04,-1.16 -2.32,-1.4 -3.81,-0.24 -1.69,1.32 -1.69,2.26 -1.39,3.19 l -0.01,0.01 c 0,0 -0.07,0.65 -0.56,0.6 -0.51,-0.44 -1.12,-0.44 -2.09,0.26 -2.6,1.88 -1.53,3.66 -1.09,4.71 -0.06,0.1 -0.16,0.17 -0.32,0.16 -0.34,-0.18 -0.77,-0.18 -1.35,0.15 -1.38,0.79 -1.18,3.39 -0.79,4.24 0.43,0.93 2.8,4.19 3.61,5.11 0.19,0.21 0.42,0.36 0.67,0.46 a 0.689,0.689 0 0 1 -0.08,-0.03 c 0.71,0.44 1.95,0.97 3.16,0.22 0,0 0.77,-0.56 0.84,-1.15 1.31,0.73 3.12,-0.63 3.12,-0.63 0.85,-0.65 1.07,-1.38 1.04,-2.01 0.43,0.26 0.9,0.36 1.35,0.37 1.36,0.04 2.61,-0.76 2.61,-0.76 1.95,-1.11 2.34,-2.27 2.33,-3.04 1.01,0.63 2.26,0.16 2.26,0.16 2.21,-1 2.14,-3.15 2.14,-3.15 z"
       fill="url(#IconifyId17ecdb2904d178eab21122)"
       id="path59"
       style="fill:url(#IconifyId17ecdb2904d178eab21122)" />
  </g>
  <g
     id="g62"
     transform="translate(-3.8299999,35.495594)">
    <linearGradient
       id="IconifyId17ecdb2904d178eab21123"
       gradientUnits="userSpaceOnUse"
       x1="99.203003"
       y1="9.1520004"
       x2="120.799"
       y2="9.1520004"
       gradientTransform="matrix(1,0,0,-1,0,128)">
      <stop
         offset="0"
         stop-color="#fb8c00"
         id="stop60" />
      <stop
         offset=".482"
         stop-color="#f67f00"
         id="stop61" />
      <stop
         offset="1"
         stop-color="#ef6c00"
         id="stop62" />
    </linearGradient>
    <path
       d="m 107.96,123.98 h 12.84 c 0,0 0.56,-9.79 -15.16,-10.26 -15.73,-0.46 2.32,10.26 2.32,10.26 z"
       fill="url(#IconifyId17ecdb2904d178eab21123)"
       id="path62"
       style="fill:url(#IconifyId17ecdb2904d178eab21123)" />
  </g>
  <g
     id="g64"
     transform="translate(-3.8299999,35.495594)">
    <linearGradient
       id="IconifyId17ecdb2904d178eab21124"
       gradientUnits="userSpaceOnUse"
       x1="141.62199"
       y1="10.24"
       x2="131.942"
       y2="24.017"
       gradientTransform="rotate(180,124.32,64)">
      <stop
         offset="0"
         stop-color="#a47b62"
         id="stop63" />
      <stop
         offset=".5"
         stop-color="#ba8d68"
         id="stop64" />
    </linearGradient>
    <path
       d="m 99.46,111.64 c 0.11,-2.84 2.23,-8.7 5,-9.19 0.17,-0.03 0.32,-0.11 0.41,-0.25 0.44,-0.67 1.85,-2.47 4.43,-1.05 0.96,0.53 1.3,1 1.14,1.68 0.12,0.14 0.34,0.31 0.66,0.18 1.04,-1.16 2.32,-1.4 3.81,-0.24 1.69,1.32 1.69,2.26 1.39,3.19 l 0.01,0.01 c 0,0 0.07,0.65 0.56,0.6 0.51,-0.44 1.12,-0.44 2.09,0.26 2.6,1.88 1.53,3.66 1.09,4.71 0.06,0.1 0.15,0.17 0.32,0.16 0.34,-0.18 0.77,-0.18 1.35,0.15 1.38,0.79 1.18,3.39 0.79,4.24 -0.43,0.93 -2.79,4.19 -3.61,5.11 -0.19,0.21 -0.42,0.36 -0.67,0.46 0.03,-0.01 0.06,-0.02 0.08,-0.03 -0.71,0.44 -1.95,0.97 -3.16,0.22 0,0 -0.77,-0.56 -0.84,-1.15 -1.31,0.73 -3.12,-0.63 -3.12,-0.63 -0.85,-0.65 -1.07,-1.38 -1.04,-2.01 -0.43,0.26 -0.9,0.36 -1.35,0.37 -1.36,0.04 -2.61,-0.76 -2.61,-0.76 -1.95,-1.11 -2.34,-2.27 -2.33,-3.04 -1.01,0.63 -2.26,0.16 -2.26,0.16 -2.21,-1 -2.14,-3.15 -2.14,-3.15 z"
       fill="url(#IconifyId17ecdb2904d178eab21124)"
       id="path64"
       style="fill:url(#IconifyId17ecdb2904d178eab21124)" />
  </g>
  <path
     d="m 112.41,157.05559 c -0.17,-0.09 -0.33,-0.19 -0.48,-0.32 -0.02,-0.02 -0.05,-0.04 -0.07,-0.07 -0.28,-0.31 -0.36,-0.81 0.37,-1.81 2,-2.65 2.79,-4.63 2.79,-4.63 0.55,-1.39 0.35,-1.62 0.35,-1.62 -0.19,-0.31 -0.58,0.59 -0.58,0.59 -1.98,3.57 -3.34,5.13 -3.93,5.71 -0.03,0.02 -0.06,0.04 -0.09,0.05 -0.11,0.07 -0.23,0.14 -0.36,0.19 -0.05,0.02 -0.11,0.04 -0.16,0.06 -0.11,0.04 -0.23,0.06 -0.35,0.08 -0.06,0.01 -0.12,0.02 -0.19,0.02 -0.13,0 -0.26,-0.01 -0.4,-0.04 -0.06,-0.01 -0.12,-0.01 -0.18,-0.03 a 2.49,2.49 0 0 1 -0.9,-0.45 c -0.04,-0.04 -0.09,-0.08 -0.13,-0.12 -0.04,-0.04 -0.09,-0.08 -0.13,-0.12 -0.05,-0.06 -0.1,-0.13 -0.15,-0.19 -0.02,-0.03 -0.05,-0.06 -0.07,-0.1 -0.05,-0.08 -0.09,-0.16 -0.13,-0.25 -0.01,-0.03 -0.03,-0.06 -0.04,-0.09 -0.04,-0.09 -0.06,-0.19 -0.08,-0.29 l -0.03,-0.09 c -0.02,-0.1 -0.02,-0.21 -0.03,-0.31 0,-0.04 -0.01,-0.07 -0.01,-0.1 0,-0.11 0.02,-0.22 0.04,-0.33 0.01,-0.04 0.01,-0.08 0.02,-0.13 0.02,-0.11 0.07,-0.22 0.11,-0.34 0.02,-0.05 0.03,-0.1 0.05,-0.14 2.28,-3.22 3.46,-6.03 3.46,-6.03 0.38,-0.78 0.52,-1.6 0.52,-1.6 -0.25,-0.46 -0.65,0.21 -0.65,0.21 -2.6,4.84 -4.14,6.78 -4.14,6.78 0,0 -1.21,2.11 -3.86,0.53 0,0 -1.31,-0.84 -1.53,-1.43 -0.19,-0.49 -0.31,-1.36 0.36,-2.6 0,0 1.59,-3.25 4.21,-7.34 0,0 0.17,-0.64 -0.42,-0.28 -0.46,0.28 -0.79,0.86 -0.95,1.04 0,0 -1.55,2.07 -3.8,6.2 0,0 -0.5,0.95 -1.08,1.42 -0.57,0.24 -1.29,0.15 -2.08,-0.44 -1.71,-1.28 -1.07,-3.07 -0.12,-4.91 0.52,-1 1.71,-3.25 2.84,-5.05 0.11,-0.04 0.22,-0.08 0.33,-0.1 0.36,-0.06 0.65,-0.25 0.83,-0.53 0.9,-1.37 0.19,-2.61 -1.07,-0.7 -3.16,0.54 -5.4,6.72 -5.51,9.77 0,0.11 -0.05,2.59 2.51,3.73 0.08,0.03 1.01,0.37 2.01,0.14 0.25,0.83 0.93,1.8 2.52,2.71 0.03,0.02 1.42,0.87 2.94,0.85 0.28,-0.01 0.56,-0.04 0.82,-0.11 0.16,0.52 0.5,1.09 1.18,1.61 0.08,0.06 1.64,1.23 3.14,0.93 0.29,0.46 0.71,0.78 0.82,0.86 0.46,0.29 0.95,0.44 1.45,0.48 h 0.45 c 0.64,-0.04 1.31,-0.26 1.97,-0.67 0.01,0 0.01,-0.01 0.02,-0.01 1.55,-1.06 3.78,-5.49 3.78,-5.94 0,-0.01 -3.36,5.83 -6.19,5.35 z"
     fill="#91674d"
     id="path65" />
  <path
     d="m 24.6,141.73559 c -0.12,-3.05 -2.36,-9.23 -5.51,-9.77 -1.25,-1.91 -1.97,-0.67 -1.07,0.7 0.18,0.28 0.48,0.46 0.83,0.53 0.11,0.02 0.22,0.06 0.33,0.1 1.13,1.8 2.32,4.06 2.84,5.05 0.95,1.83 1.58,3.62 -0.12,4.91 -0.79,0.59 -1.5,0.68 -2.08,0.44 -0.57,-0.47 -1.08,-1.42 -1.08,-1.42 -2.25,-4.13 -3.8,-6.2 -3.8,-6.2 -0.16,-0.18 -0.48,-0.75 -0.95,-1.04 -0.59,-0.36 -0.42,0.28 -0.42,0.28 2.62,4.08 4.21,7.34 4.21,7.34 0.68,1.24 0.56,2.11 0.36,2.6 -0.22,0.59 -1.53,1.43 -1.53,1.43 -2.64,1.58 -3.86,-0.53 -3.86,-0.53 0,0 -1.55,-1.94 -4.1399999,-6.78 0,0 -0.41,-0.67 -0.65,-0.21 0,0 0.14,0.82 0.52,1.6 0,0 1.18,2.8 3.4599999,6.03 0.02,0.05 0.03,0.1 0.05,0.14 0.04,0.11 0.08,0.23 0.11,0.34 0.01,0.04 0.01,0.08 0.02,0.13 0.02,0.11 0.04,0.22 0.04,0.33 0,0.04 -0.01,0.07 -0.01,0.1 0,0.11 -0.01,0.21 -0.03,0.31 -0.01,0.03 -0.02,0.06 -0.02,0.09 -0.02,0.1 -0.05,0.2 -0.09,0.29 -0.01,0.03 -0.03,0.06 -0.04,0.09 -0.04,0.08 -0.08,0.17 -0.13,0.25 -0.02,0.03 -0.05,0.06 -0.07,0.1 -0.05,0.07 -0.1,0.13 -0.15,0.19 -0.04,0.04 -0.09,0.08 -0.13,0.12 -0.04,0.04 -0.08,0.08 -0.13,0.12 -0.09,0.07 -0.19,0.14 -0.28,0.19 -0.22,0.12 -0.43,0.21 -0.62,0.26 -0.06,0.02 -0.12,0.02 -0.19,0.03 -0.14,0.02 -0.27,0.04 -0.3999999,0.04 -0.06,0 -0.13,-0.01 -0.19,-0.02 -0.12,-0.02 -0.24,-0.04 -0.35,-0.08 -0.05,-0.02 -0.11,-0.04 -0.16,-0.06 -0.12,-0.05 -0.24,-0.12 -0.36,-0.19 -0.03,-0.02 -0.06,-0.03 -0.09,-0.05 -0.59,-0.58 -1.95,-2.14 -3.93,-5.71 0,0 -0.39,-0.9 -0.58,-0.59 0,0 -0.2,0.24 0.35,1.62 0,0 0.79,1.98 2.79,4.63 0.73,1 0.65,1.5 0.37,1.81 -0.02,0.02 -0.05,0.04 -0.07,0.07 -0.14,0.13 -0.31,0.23 -0.48,0.32 -2.83,0.49 -6.20000002,-5.36 -6.20000002,-5.36 0,0.46 2.23000002,4.89 3.78000002,5.94 0.01,0 0.01,0.01 0.02,0.01 0.66,0.41 1.32,0.63 1.97,0.67 h 0.45 c 0.51,-0.04 1,-0.19 1.45,-0.48 0.11,-0.08 0.53,-0.41 0.82,-0.86 1.4999999,0.3 3.0699999,-0.87 3.1399999,-0.93 0.68,-0.52 1.02,-1.09 1.18,-1.61 0.26,0.07 0.53,0.11 0.82,0.11 1.52,0.03 2.91,-0.83 2.94,-0.85 1.59,-0.9 2.27,-1.88 2.52,-2.71 1,0.22 1.93,-0.11 2.01,-0.14 2.59,-1.13 2.54,-3.61 2.53,-3.72 z"
     fill="#91674d"
     id="path66" />
  <g
     id="g69"
     transform="translate(-3.8299999,35.495594)">
    <linearGradient
       id="IconifyId17ecdb2904d178eab21125"
       gradientUnits="userSpaceOnUse"
       x1="64"
       y1="53.473999"
       x2="64"
       y2="-14.939"
       gradientTransform="matrix(1,0,0,-1,0,128)">
      <stop
         offset="0"
         stop-color="#4dd0e1"
         id="stop66" />
      <stop
         offset="1"
         stop-color="#00bcd4"
         id="stop67" />
    </linearGradient>
    <path
       d="M 110,123.98 V 81.17 c 0,-3.58 -2.92,-6.5 -6.5,-6.5 h -79 c -3.58,0 -6.5,2.92 -6.5,6.5 v 42.82 h 92 z"
       fill="url(#IconifyId17ecdb2904d178eab21125)"
       id="path67"
       style="fill:url(#IconifyId17ecdb2904d178eab21125)" />
    <linearGradient
       id="IconifyId17ecdb2904d178eab21126"
       gradientUnits="userSpaceOnUse"
       x1="63.999001"
       y1="35.403999"
       x2="63.999001"
       y2="-3.8740001"
       gradientTransform="matrix(1,0,0,-1,0,128)">
      <stop
         offset="0"
         stop-color="#00bcd4"
         id="stop68" />
      <stop
         offset="1"
         stop-color="#0097a7"
         id="stop69" />
    </linearGradient>
    <path
       d="m 78.99,123.98 c -0.61,-1.93 -1.41,-4.11 -2.09,-6.43 -1.37,-4.66 -1.94,-12.44 -2.18,-17.87 -0.15,-3.43 -2.99,-6.14 -6.45,-6.14 h -8.55 c -3.46,0 -6.3,2.7 -6.45,6.14 -0.24,5.43 -0.81,13.21 -2.18,17.87 -0.68,2.32 -1.47,4.5 -2.09,6.43 z"
       fill="url(#IconifyId17ecdb2904d178eab21126)"
       id="path69"
       style="fill:url(#IconifyId17ecdb2904d178eab21126)" />
  </g>
  <g
     id="g15"
     transform="matrix(0.1250424,0,0,0.1250424,94.586271,5.1024658e-5)">
    <path
       fill="#1d2e79"
       d="M 245.002,21.996 C 109.691,21.996 0,131.687 0,266.998 0,294.271 4.462,320.5 12.686,345.002 L 138.63,487.764 C 170.802,503.294 206.885,512 245.002,512 380.313,512 490.004,402.309 490.004,266.998 490.004,131.687 380.313,21.996 245.002,21.996 Z"
       opacity="1"
       data-original="#1d2e79"
       class=""
       id="path1" />
    <path
       fill="#27a6ff"
       d="m 332.281,483.619 -32.293,-32.293 19.5,-49.146 a 11.5,11.5 0 0 0 -2.558,-12.373 l -81.91,-82.035 -22.324,-10.443 -10.677,9.943 93.302,93.452 -19.5,49.146 a 11.5,11.5 0 0 0 2.558,12.373 l 37.639,37.639 c 4.491,4.491 11.773,4.491 16.263,0 4.491,-4.491 4.491,-11.772 0,-16.263 z"
       opacity="1"
       data-original="#27a6ff"
       id="path2" />
    <circle
       cx="324.14899"
       cy="491.75"
       r="20.25"
       fill="#58d4fa"
       opacity="1"
       data-original="#58d4fa"
       id="circle2" />
    <path
       fill="#ffc242"
       d="M 499.882,316.017 462.243,278.378 A 11.5,11.5 0 0 0 449.87,275.82 l -49.146,19.5 -79.885,-80.012 -10.977,10.574 5.265,16.254 74.68,74.794 a 11.5,11.5 0 0 0 12.373,2.558 l 49.146,-19.5 32.293,32.293 c 4.491,4.491 11.773,4.491 16.264,0 4.49,-4.491 4.49,-11.772 -10e-4,-16.264 z"
       opacity="1"
       data-original="#ffc242"
       class=""
       id="path3" />
    <path
       fill="#02c0fc"
       d="m 426.396,410.133 -132.838,-132.965 -13.363,1.13 -4.278,13.755 134.215,134.343 c 4.491,4.491 11.772,4.491 16.263,0 4.492,-4.491 4.492,-11.772 0.001,-16.263 z"
       opacity="1"
       data-original="#02c0fc"
       id="path4-5" />
    <circle
       cx="419.49899"
       cy="419.49899"
       r="20.25"
       fill="#64f9ea"
       opacity="1"
       data-original="#64f9ea"
       id="circle4" />
    <circle
       cx="491.75"
       cy="324.14899"
       r="20.25"
       fill="#fef156"
       opacity="1"
       data-original="#fef156"
       id="circle5" />
    <circle
       cx="221.02901"
       cy="209.797"
       r="101.091"
       fill="#3f57a0"
       opacity="1"
       data-original="#3f57a0"
       class=""
       id="circle6" />
    <circle
       cx="221.02901"
       cy="209.797"
       r="42.452999"
       fill="#02c0fc"
       opacity="1"
       data-original="#02c0fc"
       id="circle7" />
    <path
       fill="#ffc7ab"
       d="m 305.144,155.765 c -7.912,7.912 -7.445,21.154 1.399,28.437 7.689,6.332 19.037,5.46 26.081,-1.583 l 2.786,-2.785 c -7.911,7.911 -7.445,21.154 1.399,28.437 7.689,6.332 19.037,5.46 26.081,-1.583 l 8.771,-8.771 c -7.132,7.132 -7.132,18.802 0,25.934 l 1.233,1.233 c 7.132,7.132 18.802,7.132 25.934,0 l 61.119,-61.119 c 25.875,-25.875 22.708,-47.58 32.218,-57.09 l 5.371,-5.355 c 19.272,-19.216 19.288,-50.426 0.035,-69.661 l -7.304,-7.298 C 468.329,14.375 435.863,12.632 416.113,29.382 l -87.037,73.775 z"
       opacity="1"
       data-original="#ffc7ab"
       class=""
       id="path7" />
    <path
       fill="#58d4fa"
       d="m 58.488,323.098 -15.833,-19.199 -22.337,4.702 a 61.99,61.99 0 0 0 -7.631,36.401 243.532,243.532 0 0 0 13.603,32.484 l 31.406,-15.938 4.452,-24.483 a 32.471,32.471 0 0 0 -3.66,-13.967 z"
       opacity="1"
       data-original="#58d4fa"
       id="path8-8" />
    <path
       fill="#e8f8fc"
       d="m 211.286,216.033 c -8.314,-8.314 -21.792,-8.314 -30.105,-10e-4 l -14.627,14.627 c -8.313,8.313 -8.314,21.792 0,30.106 8.313,8.313 21.792,8.313 30.105,0 l 14.627,-14.627 c 8.314,-8.314 8.314,-21.792 0,-30.105 z m 1.069,173.926 c -6.773,-7.46 -17.534,-8.821 -25.789,-4.126 7.647,-8.189 7.499,-21.017 -0.485,-29 -6.761,-6.761 -16.997,-7.9 -24.95,-3.451 l 1.756,-1.756 c 7.725,-7.726 8.548,-21.111 1.225,-29.22 -6.282,-6.957 -16.022,-8.637 -24.003,-5.09 l -31.747,6.864 -44.493,56.203 7.163,59.114 a 246.638,246.638 0 0 0 16.339,15.047 h 13.946 v 10.902 a 244.84,244.84 0 0 0 37.315,22.32 82.384,82.384 0 0 0 17.131,-13.138 l 25.738,-25.738 -1.324,-9.063 13.748,-3.361 17.258,-17.258 c 7.953,-7.955 8.733,-20.92 1.172,-29.249 z"
       opacity="1"
       data-original="#e8f8fc"
       id="path9" />
    <path
       fill="#ade9f7"
       d="m 84.219,253.854 c -7.358,-5.87 -18.082,-4.664 -23.952,2.694 l -23.163,29.034 10.384,16.675 17.461,3.08 21.964,-27.53 c 5.87,-7.358 4.665,-18.082 -2.694,-23.953 z"
       opacity="1"
       data-original="#ade9f7"
       id="path10" />
    <circle
       cx="42.653999"
       cy="307.26501"
       r="23.778999"
       fill="#27a6ff"
       opacity="1"
       data-original="#27a6ff"
       id="circle10" />
    <path
       fill="#ffaa7b"
       d="M 480.118,14.413 C 460.923,-4.782 429.81,-4.808 410.583,14.354 a 20.39,20.39 0 0 1 -12.093,5.84 L 341.888,28.59 C 320.6,31.748 303.334,47.517 298.64,68.053 l 10.222,10.495 0.154,19.01 -81.384,81.384 c -7.911,7.912 -7.445,21.155 1.4,28.438 7.69,6.332 19.037,5.459 26.08,-1.584 L 305.143,155.765 420.678,40.231 C 439.461,21.448 470.38,15.349 492.74,27.035 Z"
       opacity="1"
       data-original="#ffaa7b"
       id="path11" />
    <path
       fill="#f7965b"
       d="m 299.009,66.583 16.121,-4.289 c 10.917,-2.904 18.644,10.507 10.656,18.495 l -16.769,16.769 c -3.001,-3.905 -12.792,-8.696 -11.409,-23.116 a 49.915,49.915 0 0 1 1.401,-7.859 z"
       opacity="1"
       data-original="#f7965b"
       class=""
       id="path12-3" />
    <path
       fill="#ade9f7"
       d="m 156.215,272.466 c -8.243,-9.003 -22.232,-9.235 -30.771,-0.696 l -86.269,86.269 a 82.371,82.371 0 0 0 -13.628,17.968 245.344,245.344 0 0 0 33.557,50.569 l 18.008,-5.194 v -34.75 l 30.217,-36.537 32.78,-32.78 14.969,-14.969 c 7.926,-7.928 8.707,-21.612 1.137,-29.88 z"
       opacity="1"
       data-original="#ade9f7"
       id="path13-0" />
    <circle
       cx="160.093"
       cy="267.22601"
       r="20.083"
       fill="#02c0fc"
       opacity="1"
       data-original="#02c0fc"
       id="circle13" />
    <path
       fill="#3feadd"
       d="m 143.147,398.112 -56.131,56.131 a 246.144,246.144 0 0 0 14.678,11.477 l 47.991,-47.992 31.487,31.487 13.077,-13.077 -38.026,-38.026 c -3.609,-3.611 -9.465,-3.611 -13.076,0 z"
       opacity="1"
       data-original="#3feadd"
       id="path14-6" />
    <path
       fill="#02c0fc"
       d="M 95.85,350.815 67.515,379.15 a 9.25,9.25 0 0 0 -2.596,7.981 l 4.497,28.478 -10.612,10.612 a 246.195,246.195 0 0 0 12.551,13.605 l 14.469,-14.469 a 9.245,9.245 0 0 0 2.595,-7.98 l -4.496,-28.479 25.005,-25.005 c 3.611,-3.611 3.611,-9.466 0,-13.077 -3.611,-3.611 -9.467,-3.612 -13.078,-10e-4 z"
       opacity="1"
       data-original="#02c0fc"
       id="path15-2" />
  </g>
</svg>
