<?xml version="1.0" encoding="UTF-8" standalone="no"?>
<!-- Uploaded to: SVG Repo, www.svgrepo.com, Generator: SVG Repo Mixer Tools -->

<svg
   width="1012.1791"
   height="1010.1979"
   viewBox="0 0 161.94865 161.63167"
   aria-hidden="true"
   role="img"
   class="iconify iconify--noto"
   preserveAspectRatio="xMidYMid"
   version="1.1"
   id="svg40"
   xmlns="http://www.w3.org/2000/svg"
   xmlns:svg="http://www.w3.org/2000/svg">
  <defs
     id="defs40" />
  <path
     d="m 46.53,41.489492 c -41.0100002,0 -40.6800002,37.92 -40.6800002,38.53 0,24.559998 1.88,59.249998 11.7100002,72.899998 3.9,5.41 11.43,5.71 11.43,5.71 l 16.97,-0.03 16.97,0.03 c 0,0 7.54,-0.3 11.43,-5.71 9.83,-13.65 11.71,-48.34 11.71,-72.899998 -0.01,-0.61 1.47,-38.53 -39.54,-38.53 z"
     fill="#312d2d"
     id="path1" />
  <radialGradient
     id="IconifyId17ecdb2904d178eab23708"
     cx="50.011002"
     cy="57.851002"
     r="47.530998"
     gradientTransform="matrix(1,0,0,1.1901,-4.0500002,28.209492)"
     gradientUnits="userSpaceOnUse">
    <stop
       offset=".794"
       stop-color="#454140"
       stop-opacity="0"
       id="stop1" />
    <stop
       offset="1"
       stop-color="#454140"
       id="stop2" />
  </radialGradient>
  <path
     d="m 46.53,41.489492 c -41.0100002,0 -40.6800002,37.92 -40.6800002,38.53 0,24.559998 1.88,59.249998 11.7100002,72.899998 3.9,5.41 11.43,5.71 11.43,5.71 l 16.97,-0.03 16.97,0.03 c 0,0 7.54,-0.3 11.43,-5.71 9.83,-13.65 11.71,-48.34 11.71,-72.899998 -0.01,-0.61 1.47,-38.53 -39.54,-38.53 z"
     fill="url(#IconifyId17ecdb2904d178eab23708)"
     id="path2"
     style="fill:url(#IconifyId17ecdb2904d178eab23708)" />
  <linearGradient
     id="IconifyId17ecdb2904d178eab23709"
     gradientUnits="userSpaceOnUse"
     x1="53.049999"
     y1="94.07"
     x2="53.049999"
     y2="122.07"
     gradientTransform="translate(-4.0500002,39.369492)">
    <stop
       offset=".003"
       stop-color="#616161"
       id="stop3" />
    <stop
       offset=".277"
       stop-color="#545454"
       id="stop4" />
    <stop
       offset=".783"
       stop-color="#323232"
       id="stop5" />
    <stop
       offset="1"
       stop-color="#212121"
       id="stop6" />
  </linearGradient>
  <path
     d="m 98,158.42949 v 3.01 H -1.9073487e-7 v -15.93 C 6.7599998,139.31949 18.5,135.73949 31.44,134.24949 c 1.81,-0.21 3.65,-0.37 5.5,-0.49 h 0.01 c 3,-0.22 6.02,-0.32 9.05,-0.32 h 0.14 c 2.95,0 5.9,0.11 8.81,0.32 1.84,0.13 3.67,0.31 5.48,0.53 20.31,2.49 37.57,10.43 37.57,24.14 z"
     fill="url(#IconifyId17ecdb2904d178eab23709)"
     id="path6"
     style="fill:url(#IconifyId17ecdb2904d178eab23709)" />
  <path
     d="m 80.02,147.69949 c -0.32,0.11 -5.23,3.04 -12.05,5.56 -3.21,1.19 -13.11,3.08 -21.95,2.88 -15.88,-0.38 -27.44,-5.31 -34.09,-8.77 -2.5100002,-1.3 -5.4800002,-3.91 -7.0500002,-5.38 l -1.93,1.25 c 1.24,1.21 3.67,3.34 7.4500002,5.61 -4.1100002,4.5 -5.3000002,10.6 -5.5900002,12.59 h 2.03 c 0.35,-2.1 1.59,-7.68 5.3400002,-11.57 2.61,1.44 5.76,2.88 9.48,4.16 -2.09,3.27 -2.39,6.5 -2.43,7.41 h 2 c 0.05,-0.86 0.38,-3.86 2.4,-6.77 6.03,1.86 13.43,3.24 22.35,3.45 0.69,0.02 1.37,0.02 2.04,0.02 8.08,0 14.81,-1.17 20.34,-2.86 1.65,2.7 1.95,5.35 2,6.15 h 2 c -0.04,-0.85 -0.31,-3.74 -2.06,-6.79 3.75,-1.3 6.89,-2.83 9.47,-4.38 3.46,3.86 4.64,9.14 4.97,11.16 h 2.03 c -0.28,-1.93 -1.42,-7.78 -5.28,-12.25 3.6,-2.37 5.9,-4.64 7.07,-5.93 l -1.77,-1.06 c -1.19,1.29 -3.4,3.35 -6.77,5.52 z"
     opacity="0.19"
     fill="#ffffff"
     id="path7" />
  <path
     d="m 45.95,127.44949 h -9.08 v 9.98 c 0,4.51 3.7,8.17 8.26,8.17 h 1.65 c 4.56,0 8.26,-3.66 8.26,-8.17 v -9.98 z"
     fill="#edc391"
     id="path8" />
  <path
     d="m 56.43,145.41949 a 30.13,30.13 0 0 1 -3.57,4.63 c -3.52,3.78 -6.91,5.57 -6.91,5.57 0,0 -3.44,-1.82 -6.98,-5.52 a 29.195,29.195 0 0 1 -3.53,-4.44 l 10.5,-2.29 h 0.01 v -0.01 c -0.03,-0.04 0.01,-0.07 0.1,-0.07 0.91,-0.1 6.97,1.31 10.38,2.13 z"
     fill="#d8d8d8"
     id="path9" />
  <path
     d="m 45.94,143.36949 -6.97,6.73 a 29.195,29.195 0 0 1 -3.53,-4.44 c -1.99,-3.08 -3.59,-6.88 -4,-11.41 1.81,-0.21 3.65,-0.37 5.5,-0.49 h 0.01 c 0.62,1.34 2.78,5.03 8.99,9.61 z"
     fill="#ffffff"
     id="path10" />
  <path
     d="m 60.43,134.28949 c -0.57,4.43 -2.12,8.13 -4,11.13 a 30.13,30.13 0 0 1 -3.57,4.63 l -6.91,-6.68 v -0.01 l 0.1,-0.07 c 6.13,-4.55 8.27,-8.19 8.9,-9.53 1.84,0.13 3.67,0.31 5.48,0.53 z"
     fill="#ffffff"
     id="path11" />
  <path
     d="m 45.96,53.409492 c -17.2,0 -33.13,12.79 -33.13,39.91 0,21.779998 13.49,34.669998 25.23,38.829998 2.8,0.99 5.5,1.49 7.9,1.49 2.38,0 5.07,-0.49 7.85,-1.47 11.76,-4.14 25.28,-17.03 25.28,-38.839998 0,-27.13 -15.93,-39.92 -33.13,-39.92 z"
     fill="#f9ddbd"
     id="path12" />
  <g
     fill="#312d2d"
     id="g13"
     transform="translate(-4.0500002,37.369492)">
    <ellipse
       cx="33.759998"
       cy="58.869999"
       rx="4.8699999"
       ry="5.04"
       id="ellipse12" />
    <ellipse
       cx="66.260002"
       cy="58.869999"
       rx="4.8699999"
       ry="5.04"
       id="ellipse13" />
  </g>
  <g
     fill="#454140"
     id="g14"
     transform="translate(-4.0500002,37.369492)">
    <path
       d="m 40.99,49.82 c -0.93,-1.23 -3.07,-3.01 -7.23,-3.01 -4.16,0 -6.31,1.79 -7.23,3.01 -0.41,0.54 -0.31,1.17 -0.02,1.55 0.26,0.35 1.04,0.68 1.9,0.39 0.86,-0.29 2.54,-1.16 5.35,-1.18 2.81,0.02 4.49,0.89 5.35,1.18 0.86,0.29 1.64,-0.03 1.9,-0.39 0.29,-0.38 0.39,-1.01 -0.02,-1.55 z"
       id="path13" />
    <path
       d="m 73.49,49.82 c -0.93,-1.23 -3.07,-3.01 -7.23,-3.01 -4.16,0 -6.31,1.79 -7.23,3.01 -0.41,0.54 -0.31,1.17 -0.02,1.55 0.26,0.35 1.04,0.68 1.9,0.39 0.86,-0.29 2.54,-1.16 5.35,-1.18 2.81,0.02 4.49,0.89 5.35,1.18 0.86,0.29 1.64,-0.03 1.9,-0.39 0.29,-0.38 0.39,-1.01 -0.02,-1.55 z"
       id="path14" />
  </g>
  <path
     d="M 53.73,115.24949 H 38.18 c -3.31,0 -2.72,1.94 -1.12,2.62 2.51,1.07 6.06,1.36 8.87,1.37 h 0.04 c 2.81,-0.01 6.36,-0.3 8.87,-1.37 1.61,-0.68 2.2,-2.62 -1.11,-2.62 z"
     fill="#444444"
     id="path15" />
  <path
     d="m 49.77,105.42949 c -0.1,-0.04 -0.21,-0.07 -0.32,-0.08 h -6.99 c -0.11,0.01 -0.21,0.04 -0.32,0.08 -0.63,0.26 -0.98,0.91 -0.68,1.61 0.3,0.7 1.69,2.66 4.49,2.66 2.8,0 4.19,-1.96 4.49,-2.66 0.32,-0.7 -0.03,-1.36 -0.67,-1.61 z"
     fill="#dba689"
     id="path16" />
  <g
     id="g18"
     transform="translate(-4.0500002,37.369492)">
    <path
       d="M 50.58,4.12 C 9.57,4.12 9.9,42.04 9.9,42.65 c 0,7.76 0.19,16.53 0.75,25.32 l 6.72,-0.02 c -0.06,-2.92 1.99,-20.97 8.08,-22.34 22.36,-5.03 35.01,-16.89 35.01,-16.89 3.29,7.18 13.58,14.19 17.27,16.86 3.03,2.19 3.96,18.55 3.9,22.38 h 7.71 c 0,-0.05 0.02,-0.1 0.02,-0.16 C 89.92,59.05 90.1,50.34 90.1,42.63 90.11,42.04 91.59,4.12 50.58,4.12 Z"
       fill="#312d2d"
       id="path17" />
    <radialGradient
       id="IconifyId17ecdb2904d178eab23710"
       cx="50.344002"
       cy="61.890999"
       r="49.787998"
       gradientTransform="matrix(1,0,0,1.2135,0,-11.387)"
       gradientUnits="userSpaceOnUse">
      <stop
         offset=".794"
         stop-color="#454140"
         stop-opacity="0"
         id="stop17" />
      <stop
         offset="1"
         stop-color="#454140"
         id="stop18" />
    </radialGradient>
    <path
       d="M 50.58,4.12 C 9.57,4.12 9.9,42.04 9.9,42.65 c 0,7.76 0.19,16.53 0.75,25.32 l 6.72,-0.02 c -0.06,-2.92 1.99,-20.97 8.08,-22.34 22.36,-5.03 35.01,-16.89 35.01,-16.89 3.29,7.18 13.58,14.19 17.27,16.86 3.03,2.19 3.96,18.55 3.9,22.38 h 7.71 c 0,-0.05 0.02,-0.1 0.02,-0.16 C 89.92,59.05 90.1,50.34 90.1,42.63 90.11,42.04 91.59,4.12 50.58,4.12 Z"
       fill="url(#IconifyId17ecdb2904d178eab23710)"
       id="path18"
       style="fill:url(#IconifyId17ecdb2904d178eab23710)" />
  </g>
  <g
     id="g22"
     transform="translate(-4.0500002,37.369492)">
    <path
       d="m 50.05,118.32 c 0,0 6.12,-3.24 10.47,-10.19 -3.79,-0.91 -10.83,-2.55 -10.48,-2.06 l -10.51,2.29 c 4.34,6.69 10.52,9.96 10.52,9.96 z"
       fill="#d8d8d8"
       id="path19" />
    <linearGradient
       id="IconifyId17ecdb2904d178eab23711"
       gradientUnits="userSpaceOnUse"
       x1="42.792999"
       y1="103.645"
       x2="42.792999"
       y2="94.124001"
       gradientTransform="translate(0,2)">
      <stop
         offset="0"
         stop-color="#ffffff"
         id="stop19" />
      <stop
         offset="1"
         stop-color="#bdbdbd"
         id="stop20" />
    </linearGradient>
    <path
       d="m 41.01,96.38 c -1.84,0.13 -3.66,0.3 -5.47,0.5 0.64,7.08 4.13,12.37 7.53,15.92 l 6.98,-6.74 c -6.35,-4.67 -8.46,-8.4 -9.04,-9.68 z"
       fill="url(#IconifyId17ecdb2904d178eab23711)"
       id="path20"
       style="fill:url(#IconifyId17ecdb2904d178eab23711)" />
    <linearGradient
       id="IconifyId17ecdb2904d178eab23712"
       gradientUnits="userSpaceOnUse"
       x1="57.292"
       y1="103.645"
       x2="57.292"
       y2="94.124001"
       gradientTransform="translate(0,2)">
      <stop
         offset="0"
         stop-color="#ffffff"
         id="stop21" />
      <stop
         offset="1"
         stop-color="#bdbdbd"
         id="stop22" />
    </linearGradient>
    <path
       d="m 59.08,96.4 c -0.59,1.29 -2.72,5 -9.03,9.67 l 6.92,6.68 c 3.27,-3.5 6.66,-8.72 7.58,-15.81 -1.81,-0.22 -3.63,-0.4 -5.47,-0.54 z"
       fill="url(#IconifyId17ecdb2904d178eab23712)"
       id="path22"
       style="fill:url(#IconifyId17ecdb2904d178eab23712)" />
  </g>
  <g
     id="g28"
     transform="translate(-4.0500002,37.369492)">
    <path
       d="m 99.26,119.64 4.57,-24.84 c 0.04,-0.29 0.06,-0.57 0.03,-0.86 l -0.67,-8.86 c -0.18,-2.33 1.63,-2.63 3.95,-2.39 2.32,0.24 4.03,0.9 3.39,3.14 l -2.46,8.54 c -0.08,0.28 -0.13,0.56 -0.14,0.85 l -0.6,25.16 z"
       fill="#dd8a3e"
       id="path23" />
    <path
       d="m 106.46,76.05 2.34,0.24 c 1.71,0.18 2.97,1.72 2.8,3.44 l -0.06,0.56 a 3.154,3.154 0 0 1 -3.44,2.8 l -2.34,-0.24 a 3.154,3.154 0 0 1 -2.8,-3.44 l 0.06,-0.56 a 3.134,3.134 0 0 1 3.44,-2.8 z"
       fill="#dd8a3e"
       id="path24" />
    <path
       fill="#995f33"
       d="m 96.935,74.109 1.271,-12.386 23.507,2.413 -1.27,12.385 z"
       id="path25" />
    <path
       d="m 112.47,77.05 -9.62,-0.99 a 2.496,2.496 0 0 1 -2.23,-2.74 l 1.04,-10.16 a 2.496,2.496 0 0 1 2.74,-2.23 l 9.62,0.99 c 1.37,0.14 2.37,1.37 2.23,2.73 l -1.04,10.16 a 2.502,2.502 0 0 1 -2.74,2.24 z"
       fill="#dd8a3e"
       id="path26" />
    <path
       d="m 99.4,68.06 c 0.59,-5.76 0.62,-7.94 -1.62,-8.17 -2.24,-0.23 -4.42,3.13 -4.87,7.51 -0.45,4.38 1,8.11 3.24,8.34 2.24,0.23 2.66,-1.92 3.25,-7.68 z"
       fill="#dd8a3e"
       id="path27" />
    <path
       d="m 117.47,69.92 c 0.59,-5.76 1.01,-7.9 3.25,-7.67 2.24,0.23 3.69,3.96 3.24,8.34 -0.45,4.38 -2.63,7.74 -4.87,7.51 -2.24,-0.23 -2.21,-2.42 -1.62,-8.18 z"
       fill="#dd8a3e"
       id="path28" />
  </g>
  <g
     id="g40"
     transform="translate(-4.0500002,37.369492)">
    <radialGradient
       id="IconifyId17ecdb2904d178eab23713"
       cx="35.310001"
       cy="-8.9370003"
       r="19.311001"
       gradientTransform="matrix(-0.0347,-0.9994,1.0566,-0.0367,102.196,150.671)"
       gradientUnits="userSpaceOnUse">
      <stop
         offset=".307"
         stop-color="#f9ddbd"
         id="stop28" />
      <stop
         offset="1"
         stop-color="#ffd29c"
         id="stop29" />
    </radialGradient>
    <path
       d="m 101.19,103.72 c -1.05,0.17 -2.08,0.44 -3.05,0.88 -1.39,0.63 -8.03,-1.32 -8.44,5.08 -0.04,1.77 -0.21,7.34 1.29,10.07 3.13,5.71 14.89,4.3 15.78,4.44 5.61,0.87 3.1,-17.15 -0.07,-19.46 -0.4,-0.26 -1.04,-0.58 -1.6,-0.89 -1.09,-0.58 -2.81,-0.29 -3.91,-0.12 z"
       fill="url(#IconifyId17ecdb2904d178eab23713)"
       id="path29"
       style="fill:url(#IconifyId17ecdb2904d178eab23713)" />
    <radialGradient
       id="IconifyId17ecdb2904d178eab23714"
       cx="117.293"
       cy="112.582"
       r="14.15"
       gradientTransform="rotate(-20.61,111.272,120.003)"
       gradientUnits="userSpaceOnUse">
      <stop
         offset="0"
         stop-color="#ffd29c"
         id="stop30" />
      <stop
         offset="1"
         stop-color="#f9ddbd"
         id="stop31" />
    </radialGradient>
    <path
       d="m 109.06,120.35 -6.33,-0.14 a 1.55,1.55 0 0 0 -1.62,1.26 c -0.16,0.82 0.44,1.6 1.31,1.76 l 6.26,0.93 c 1,0.18 1.96,-0.49 2.06,-1.46 l 0.05,-0.5 c 0.1,-0.98 -0.69,-1.83 -1.73,-1.85 z"
       fill="url(#IconifyId17ecdb2904d178eab23714)"
       id="path31"
       style="fill:url(#IconifyId17ecdb2904d178eab23714)" />
    <radialGradient
       id="IconifyId17ecdb2904d178eab23715"
       cx="112.042"
       cy="100.036"
       r="14.135"
       gradientTransform="matrix(1.0148,0.1678,-0.1671,0.9861,13.547,-13.818)"
       gradientUnits="userSpaceOnUse">
      <stop
         offset="0"
         stop-color="#ffd29c"
         id="stop32" />
      <stop
         offset="1"
         stop-color="#f9ddbd"
         id="stop33" />
    </radialGradient>
    <path
       d="m 89.75,114.01 c 0,0 1.28,0.89 3.23,1.66 5.94,2.35 6.66,-4.92 6.8,-6.04 0.72,-5.78 5.83,-4.49 10.16,-4.78 0.9,-0.06 3.98,-0.53 4.81,-2.56 0.87,-3.38 -2.59,-3.33 -9.9,-3.77 -1.99,-0.12 -3.97,-0.09 -5.95,0.19 -9.39,1.31 -9.47,10.97 -9.15,15.3 z"
       fill="url(#IconifyId17ecdb2904d178eab23715)"
       id="path33"
       style="fill:url(#IconifyId17ecdb2904d178eab23715)" />
    <radialGradient
       id="IconifyId17ecdb2904d178eab23716"
       cx="118.303"
       cy="110.973"
       r="16.083"
       gradientTransform="rotate(-3.773,133.202,117.518)"
       gradientUnits="userSpaceOnUse">
      <stop
         offset="0"
         stop-color="#ffd29c"
         id="stop34" />
      <stop
         offset="1"
         stop-color="#f9ddbd"
         id="stop35" />
    </radialGradient>
    <path
       d="m 111.03,110.07 -9.06,0.77 c -1.22,0.09 -1.24,1.01 -1.3,2.17 -0.09,1.25 0.06,2.33 1.39,2.41 l 9.1,0.43 c 1.54,0.08 2.84,-1.09 2.82,-2.56 l -0.01,-0.75 c -0.04,-1.5 -1.38,-2.64 -2.94,-2.47 z"
       fill="url(#IconifyId17ecdb2904d178eab23716)"
       id="path35"
       style="fill:url(#IconifyId17ecdb2904d178eab23716)" />
    <radialGradient
       id="IconifyId17ecdb2904d178eab23717"
       cx="118.837"
       cy="110.12"
       r="15.37"
       gradientTransform="rotate(4.365,87.952,92.003)"
       gradientUnits="userSpaceOnUse">
      <stop
         offset="0"
         stop-color="#ffd29c"
         id="stop36" />
      <stop
         offset="1"
         stop-color="#f9ddbd"
         id="stop37" />
    </radialGradient>
    <path
       d="m 110.91,104.73 -7.77,1.09 c -1.16,0.15 -1.99,1.09 -1.99,2.19 -0.02,1.2 1.03,2.17 2.3,2.18 l 7.87,0.06 c 1.47,0 2.67,-1.18 2.57,-2.59 l -0.05,-0.72 c -0.11,-1.43 -1.45,-2.45 -2.93,-2.21 z"
       fill="url(#IconifyId17ecdb2904d178eab23717)"
       id="path37"
       style="fill:url(#IconifyId17ecdb2904d178eab23717)" />
    <radialGradient
       id="IconifyId17ecdb2904d178eab23718"
       cx="117.406"
       cy="111.199"
       r="15.375"
       gradientTransform="rotate(-12.95,116.063,116.1)"
       gradientUnits="userSpaceOnUse">
      <stop
         offset="0"
         stop-color="#ffd29c"
         id="stop38" />
      <stop
         offset="1"
         stop-color="#f9ddbd"
         id="stop39" />
    </radialGradient>
    <path
       d="m 110.2,115.57 -7.18,0.4 c -1.07,0.04 -1.9,0.83 -1.99,1.84 -0.12,1.09 0.76,2.06 1.92,2.18 l 7.17,0.66 c 1.34,0.12 2.53,-0.86 2.56,-2.15 l 0.02,-0.66 c 0.01,-1.33 -1.13,-2.37 -2.5,-2.27 z"
       fill="url(#IconifyId17ecdb2904d178eab23718)"
       id="path39"
       style="fill:url(#IconifyId17ecdb2904d178eab23718)" />
    <path
       d="m 111.35,115.85 c 0.11,-1.01 -8.03,0.03 -9.03,-0.81 -1.14,-0.95 -1.02,-2.81 0.39,-3.44 1.57,-0.71 9.26,-0.99 9.26,-1.43 -0.01,-0.8 -10.03,1.56 -10.1,-2.04 -0.04,-2.23 2.32,-2.22 3.9,-2.51 0.94,-0.17 5.08,-0.49 5.08,-0.78 0,-0.29 -1.02,-0.2 -1.13,-0.21 -0.75,-0.07 -5.58,0.3 -6.88,0.61 -2.15,0.51 -2.67,1.71 -2.71,2.65 -0.06,1.09 -0.34,2.54 -0.69,3.58 -0.75,2.21 -3.43,4.25 -3.51,4.54 -0.09,0.32 1.71,-0.58 2.82,-1.77 0.66,-0.7 1.57,-0.37 1.79,0.57 0.13,0.57 0.24,1.1 0.23,1.34 -0.01,0.5 -0.04,3.5 -0.21,4.53 -0.07,0.4 -0.1,0.71 0.03,1.15 0.09,0.32 0.24,0.63 0.44,0.89 0.92,1.2 2.56,1.31 3.9,1.37 0.81,0.04 4.03,0.39 4.78,-0.04 -1.79,-0.02 -8.08,0.14 -7.82,-2.31 0.17,-1.37 1.43,-0.99 2.35,-0.9 1.05,0.09 3.01,0.12 4.06,0.01 0.29,-0.03 1.83,0 1.83,-0.22 0,-0.33 -3.23,-0.37 -3.59,-0.38 -1.31,-0.04 -4.04,0.17 -4.65,-1.38 -0.22,-0.57 -0.14,-1.27 0.24,-1.76 0.91,-1.16 9.16,-0.74 9.22,-1.26 z"
       fill="#edbd82"
       id="path40" />
  </g>
  <circle
     style="fill:#90dfaa;stroke-width:0.13933"
     cx="126.55882"
     cy="35.389828"
     r="35.389828"
     id="circle1" />
  <path
     style="fill:#2c9984;stroke-width:0.13933"
     d="m 102.20393,61.026551 c 6.35345,6.01906 14.93618,9.75311 24.35489,9.75311 9.41871,0 18.00144,-3.67831 24.35489,-9.75311 z"
     id="path1-7" />
  <path
     style="fill:#ffffff;stroke-width:0.13933"
     d="m 136.70204,60.970831 h -20.84377 v 0 c 0,-1.95062 1.61623,-3.56686 3.56685,-3.56686 h 13.7658 c 1.8949,0 3.51112,1.61624 3.51112,3.56686 z"
     id="path2-9" />
  <path
     style="fill:#324a5e;stroke-width:0.13933"
     d="m 128.6209,57.403971 h -4.68149 l 0.94745,-33.272013 c 0.44585,0.111467 0.89171,0.1672 1.39329,0.1672 0.44586,0 0.94745,-0.0557 1.39331,-0.1672 z"
     id="path3" />
  <g
     id="g4"
     transform="matrix(0.13933004,0,0,0.13933004,91.168977,5.7714844e-7)">
	<circle
   style="fill:#ffffff"
   cx="252"
   cy="135.2"
   r="39.200001"
   id="circle3" />

	<path
   style="fill:#ffffff"
   d="m 331.2,268.4 c 11.2,30.8 40,52.8 74,52.8 34,0 62.8,-22 74,-52.8 z"
   id="path4" />

	<circle
   style="fill:#ffffff"
   cx="405.20001"
   cy="135.2"
   r="16"
   id="circle4" />

</g>
  <g
     id="g10"
     transform="matrix(0.13933004,0,0,0.13933004,91.168977,5.7714844e-7)">
	<path
   style="fill:#324a5e"
   d="m 92.8,147.2 c 1.6,1.2 3.6,2.4 5.6,2.8 L 36,268.4 h -6.8 z"
   id="path5" />

	<path
   style="fill:#324a5e"
   d="m 112.8,147.2 64,120.8 H 170 L 107.6,150 c 2,-0.4 3.6,-1.2 5.2,-2.8 z"
   id="path6-3" />

	<path
   style="fill:#324a5e"
   d="m 213.6,126 c -0.8,2.8 -1.2,6 -1.2,8.8 0,3.2 0.4,6 1.2,8.8 l -96,-3.2 c 0.8,-2 1.2,-4 1.2,-6 0,-2 -0.4,-4 -1.2,-6 z"
   id="path7-8" />

	<path
   style="fill:#324a5e"
   d="m 389.2,135.2 c 0,2 0.4,4 1.2,5.6 L 290,144 c 0.8,-2.8 1.2,-6 1.2,-8.8 0,-3.2 -0.4,-6 -1.2,-8.8 l 100.4,3.2 c -0.8,1.6 -1.2,3.2 -1.2,5.6 z"
   id="path8-0" />

	<path
   style="fill:#324a5e"
   d="m 394.8,147.2 c 1.6,1.2 3.6,2.4 5.6,2.8 L 338,268.4 h -6.8 z"
   id="path9-2" />

	<path
   style="fill:#324a5e"
   d="M 478.8,268.4 H 472 L 409.6,150 c 2,-0.4 4,-1.6 5.6,-2.8 z"
   id="path10-4" />

</g>
  <g
     id="g11"
     transform="matrix(0.13933004,0,0,0.13933004,91.168977,5.7714844e-7)">
	<path
   style="fill:#ffffff"
   d="m 28.8,268.4 c 11.2,30.8 40,52.8 74,52.8 34,0 62.8,-22 74,-52.8 z"
   id="path11-8" />

	<circle
   style="fill:#ffffff"
   cx="102.8"
   cy="135.2"
   r="16"
   id="circle11" />

</g>
</svg>
